<?xml version="1.0" encoding="UTF-8" standalone="no"?>
<!-- Created with Inkscape (http://www.inkscape.org/) -->

<svg
   width="189.13849mm"
   height="189.13858mm"
   viewBox="0 0 189.13849 189.13858"
   version="1.1"
   id="svg1"
   inkscape:version="1.4 (86a8ad7, 2024-10-11)"
   sodipodi:docname="magistrs.svg"
   xml:space="preserve"
   inkscape:export-batch-path="..\Desktop\Adeles draziņa\Formas"
   inkscape:export-batch-name="magistrs"
   xmlns:inkscape="http://www.inkscape.org/namespaces/inkscape"
   xmlns:sodipodi="http://sodipodi.sourceforge.net/DTD/sodipodi-0.dtd"
   xmlns:xlink="http://www.w3.org/1999/xlink"
   xmlns="http://www.w3.org/2000/svg"
   xmlns:svg="http://www.w3.org/2000/svg"><sodipodi:namedview
     id="namedview1"
     pagecolor="#d4d4d4"
     bordercolor="#eeeeee"
     borderopacity="1"
     inkscape:showpageshadow="false"
     inkscape:pageopacity="0"
     inkscape:pagecheckerboard="false"
     inkscape:deskcolor="#c7c7c7"
     inkscape:document-units="mm"
     inkscape:zoom="0.25669573"
     inkscape:cx="-2837.9904"
     inkscape:cy="5335.1102"
     inkscape:window-width="1920"
     inkscape:window-height="1009"
     inkscape:window-x="-8"
     inkscape:window-y="-8"
     inkscape:window-maximized="1"
     inkscape:current-layer="layer1"
     labelstyle="default"
     showborder="false"
     borderlayer="false"
     inkscape:clip-to-page="false"
     showgrid="false"><inkscape:page
       x="0"
       y="0"
       width="189.13849"
       height="189.13858"
       id="page5"
       margin="0"
       bleed="0" /></sodipodi:namedview><defs
     id="defs1"><color-profile
       name="Adobe-RGB-1998"
       xlink:href="../../../../../../../WINDOWS/system32/spool/drivers/color/AdobeRGB1998.icc"
       id="color-profile1" /><color-profile
       name="Adobe-RGB-1998"
       xlink:href="file:///WINDOWS/system32/spool/drivers/color/AdobeRGB1998.icc"
       id="color-profile2" /></defs><g
     inkscape:label="Slānis 1"
     inkscape:groupmode="layer"
     id="layer1"
     transform="translate(520.61322,-1173.9052)"><rect
       style="fill:#ffffff;fill-opacity:1;stroke:none;stroke-width:0.264583;stroke-opacity:1"
       id="rect39-4-6-5-8"
       width="189.13849"
       height="189.13849"
       x="-520.61322"
       y="1173.9053"
       inkscape:export-filename="..\Documents\adeles-magistrs\meklesana\fixation.svg"
       inkscape:export-xdpi="96"
       inkscape:export-ydpi="96" /><path
       d="m -427.06408,1262.1153 v 5.3389 h -5.339 v 2.0402 h 5.339 v 5.3391 h 2.0402 v -5.3391 h 5.3392 v -2.0402 h -5.3392 v -5.3389 z"
       style="fill:#808080;stroke-width:0.126062"
       id="path1-8-32-2-4-1-3-5-8"
       inkscape:export-filename="..\Documents\Dev\eksperimenta-svg-faili\fixation.png"
       inkscape:export-xdpi="96"
       inkscape:export-ydpi="96" /><path
       style="fill:#808080;fill-opacity:1;stroke:none;stroke-width:0.264583;stroke-linecap:butt;stroke-linejoin:miter;stroke-dasharray:none;stroke-opacity:1"
       d="m -356.82623,1257.9199 c -2.74787,-1.4823 -7.54329,-1.0166 -7.41697,3.1465 0.40392,4.3067 4.97385,6.3883 8.75488,7.0263 3.33371,0.2798 2.5917,4.6948 1.48667,6.8038 -1.12538,2.8007 0.28301,6.8873 4.70957,4.6469 2.46909,-1.3385 6.39998,-2.2952 4.55152,-5.5782 -1.57437,-3.7163 -5.60834,-7.1786 -5.47069,-10.572 0.36376,-3.4874 3.38173,-4.4608 1.05263,-6.3066 -2.62018,-1.5899 -3.81464,3.2191 -6.25449,1.6292 z"
       id="path16-1-7-7-9-0"
       sodipodi:nodetypes="cccccccccc" /><path
       style="fill:#808080;fill-opacity:1;stroke:none;stroke-width:0.264583;stroke-linecap:butt;stroke-linejoin:miter;stroke-dasharray:none;stroke-opacity:1"
       d="m -365.04938,1291.2825 c -2.74787,-1.4823 -7.54329,-1.0166 -7.41697,3.1465 0.40392,4.3067 4.97385,6.3883 8.75488,7.0263 3.33371,0.2798 2.5917,4.6948 1.48667,6.8038 -1.12538,2.8007 0.28301,6.8873 4.70957,4.6469 2.46909,-1.3385 6.39998,-2.2951 4.55152,-5.5782 -1.57437,-3.7163 -5.60834,-7.1786 -5.47069,-10.5719 0.36376,-3.4875 3.38173,-4.4609 1.05263,-6.3067 -2.62018,-1.5899 -3.81464,3.2191 -6.25449,1.6293 z"
       id="path16-1-7-7-9-1-1"
       sodipodi:nodetypes="cccccccccc" /><path
       style="fill:#808080;fill-opacity:1;stroke:none;stroke-width:0.264583;stroke-linecap:butt;stroke-linejoin:miter;stroke-dasharray:none;stroke-opacity:1"
       d="m -387.83496,1317.002 c -2.74787,-1.4822 -7.54329,-1.0165 -7.41697,3.1466 0.40392,4.3066 4.97385,6.3883 8.75488,7.0263 3.33371,0.2797 2.5917,4.6948 1.48667,6.8038 -1.12538,2.8007 0.28301,6.8873 4.70957,4.6469 2.46909,-1.3385 6.39998,-2.2952 4.55152,-5.5783 -1.57437,-3.7162 -5.60834,-7.1786 -5.47069,-10.5719 0.36376,-3.4874 3.38173,-4.4608 1.05263,-6.3066 -2.62018,-1.5899 -3.81464,3.2191 -6.25449,1.6292 z"
       id="path16-1-7-7-8-4"
       sodipodi:nodetypes="cccccccccc" /><path
       style="fill:#808080;fill-opacity:1;stroke:none;stroke-width:0.264583;stroke-linecap:butt;stroke-linejoin:miter;stroke-dasharray:none;stroke-opacity:1"
       d="m -419.96308,1329.1867 c -2.74787,-1.4823 -7.54329,-1.0166 -7.41697,3.1465 0.40392,4.3067 4.97385,6.3883 8.75488,7.0263 3.33371,0.2798 2.5917,4.6948 1.48667,6.8038 -1.12538,2.8007 0.28301,6.8873 4.70957,4.6469 2.46909,-1.3385 6.39998,-2.2952 4.55152,-5.5782 -1.57437,-3.7163 -5.60834,-7.1786 -5.47069,-10.572 0.36376,-3.4874 3.38173,-4.4608 1.05263,-6.3066 -2.62018,-1.5899 -3.81464,3.2191 -6.25449,1.6292 z"
       id="path16-1-7-7-2-6"
       sodipodi:nodetypes="cccccccccc" /><path
       style="fill:#808080;fill-opacity:1;stroke:none;stroke-width:0.264583;stroke-linecap:butt;stroke-linejoin:miter;stroke-dasharray:none;stroke-opacity:1"
       d="m -454.07358,1325.0448 c -2.74787,-1.4822 -7.54329,-1.0165 -7.41697,3.1466 0.40392,4.3066 4.97385,6.3883 8.75488,7.0263 3.33371,0.2798 2.5917,4.6948 1.48667,6.8038 -1.12538,2.8007 0.28301,6.8873 4.70957,4.6469 2.46909,-1.3385 6.39998,-2.2952 4.55152,-5.5782 -1.57437,-3.7163 -5.60834,-7.1786 -5.47069,-10.572 0.36376,-3.4874 3.38173,-4.4608 1.05263,-6.3066 -2.62018,-1.5899 -3.81464,3.2191 -6.25449,1.6292 z"
       id="path16-1-7-7-24-0"
       sodipodi:nodetypes="cccccccccc" /><path
       style="fill:#808080;fill-opacity:1;stroke:none;stroke-width:0.264583;stroke-linecap:butt;stroke-linejoin:miter;stroke-dasharray:none;stroke-opacity:1"
       d="m -482.35214,1305.5256 c -2.74787,-1.4823 -7.54329,-1.0166 -7.41697,3.1465 0.40392,4.3067 4.97385,6.3883 8.75488,7.0263 3.33371,0.2798 2.5917,4.6948 1.48667,6.8038 -1.12538,2.8007 0.28301,6.8873 4.70957,4.6469 2.46909,-1.3385 6.39998,-2.2952 4.55152,-5.5782 -1.57437,-3.7163 -5.60834,-7.1786 -5.47069,-10.572 0.36376,-3.4874 3.38173,-4.4608 1.05263,-6.3066 -2.62018,-1.5899 -3.81464,3.2191 -6.25449,1.6292 z"
       id="path16-1-7-7-0-7"
       sodipodi:nodetypes="cccccccccc" /><path
       style="fill:#808080;fill-opacity:1;stroke:none;stroke-width:0.264583;stroke-linecap:butt;stroke-linejoin:miter;stroke-dasharray:none;stroke-opacity:1"
       d="m -498.32053,1275.1005 c -2.74787,-1.4823 -7.54329,-1.0166 -7.41697,3.1465 0.40392,4.3067 4.97385,6.3883 8.75488,7.0263 3.33371,0.2798 2.5917,4.6948 1.48667,6.8038 -1.12538,2.8007 0.28301,6.8873 4.70957,4.6469 2.46909,-1.3385 6.39998,-2.2952 4.55152,-5.5782 -1.57437,-3.7163 -5.60834,-7.1786 -5.47069,-10.572 0.36376,-3.4874 3.38173,-4.4608 1.05263,-6.3066 -2.62018,-1.5899 -3.81464,3.2191 -6.25449,1.6292 z"
       id="path16-1-7-7-6-1"
       sodipodi:nodetypes="cccccccccc" /><path
       style="fill:#808080;fill-opacity:1;stroke:none;stroke-width:0.264583;stroke-linecap:butt;stroke-linejoin:miter;stroke-dasharray:none;stroke-opacity:1"
       d="m -498.3205,1240.7393 c -2.74787,-1.4822 -7.54329,-1.0165 -7.41697,3.1466 0.40392,4.3066 4.97385,6.3883 8.75488,7.0263 3.33371,0.2798 2.5917,4.6948 1.48667,6.8038 -1.12538,2.8007 0.28301,6.8873 4.70957,4.6469 2.46909,-1.3385 6.39998,-2.2952 4.55152,-5.5782 -1.57437,-3.7163 -5.60834,-7.1786 -5.47069,-10.572 0.36376,-3.4874 3.38173,-4.4608 1.05263,-6.3066 -2.62018,-1.5899 -3.81464,3.2191 -6.25449,1.6292 z"
       id="path16-1-7-7-93-7"
       sodipodi:nodetypes="cccccccccc" /><path
       style="fill:#808080;fill-opacity:1;stroke:none;stroke-width:0.264583;stroke-linecap:butt;stroke-linejoin:miter;stroke-dasharray:none;stroke-opacity:1"
       d="m -482.35214,1210.3142 c -2.74787,-1.4823 -7.54329,-1.0166 -7.41697,3.1465 0.40392,4.3067 4.97385,6.3883 8.75488,7.0263 3.33371,0.2798 2.5917,4.6948 1.48667,6.8038 -1.12538,2.8007 0.28301,6.8873 4.70957,4.6469 2.46909,-1.3385 6.39998,-2.2952 4.55152,-5.5782 -1.57437,-3.7163 -5.60834,-7.1786 -5.47069,-10.572 0.36376,-3.4874 3.38173,-4.4608 1.05263,-6.3066 -2.62018,-1.5899 -3.81464,3.2191 -6.25449,1.6292 z"
       id="path16-1-7-7-06-77"
       sodipodi:nodetypes="cccccccccc" /><path
       style="fill:#808080;fill-opacity:1;stroke:none;stroke-width:0.264583;stroke-linecap:butt;stroke-linejoin:miter;stroke-dasharray:none;stroke-opacity:1"
       d="m -454.07355,1190.7948 c -2.74787,-1.4822 -7.54329,-1.0165 -7.41697,3.1466 0.40392,4.3066 4.97385,6.3883 8.75488,7.0263 3.33371,0.2798 2.5917,4.6948 1.48667,6.8038 -1.12538,2.8007 0.28301,6.8873 4.70957,4.6469 2.46909,-1.3385 6.39998,-2.2952 4.55152,-5.5782 -1.57437,-3.7163 -5.60834,-7.1786 -5.47069,-10.572 0.36376,-3.4874 3.38173,-4.4608 1.05263,-6.3066 -2.62018,-1.5899 -3.81464,3.2191 -6.25449,1.6292 z"
       id="path16-1-7-7-4-73"
       sodipodi:nodetypes="cccccccccc" /><path
       style="fill:#808080;fill-opacity:1;stroke:none;stroke-width:0.264583;stroke-linecap:butt;stroke-linejoin:miter;stroke-dasharray:none;stroke-opacity:1"
       d="m -419.96308,1186.6531 c -2.74787,-1.4822 -7.54329,-1.0165 -7.41697,3.1466 0.40392,4.3066 4.97385,6.3883 8.75488,7.0263 3.33371,0.2797 2.5917,4.6948 1.48667,6.8038 -1.12538,2.8007 0.28301,6.8873 4.70957,4.6469 2.46909,-1.3385 6.39998,-2.2952 4.55152,-5.5783 -1.57437,-3.7162 -5.60834,-7.1786 -5.47069,-10.5719 0.36376,-3.4874 3.38173,-4.4608 1.05263,-6.3066 -2.62018,-1.5899 -3.81464,3.2191 -6.25449,1.6292 z"
       id="path16-1-7-7-7-35"
       sodipodi:nodetypes="cccccccccc" /><path
       style="fill:#808080;fill-opacity:1;stroke:none;stroke-width:0.264583;stroke-linecap:butt;stroke-linejoin:miter;stroke-dasharray:none;stroke-opacity:1"
       d="m -387.83493,1198.8378 c -2.74787,-1.4823 -7.54329,-1.0166 -7.41697,3.1465 0.40392,4.3067 4.97385,6.3883 8.75488,7.0263 3.33371,0.2798 2.5917,4.6948 1.48667,6.8038 -1.12538,2.8007 0.28301,6.8873 4.70957,4.6469 2.46909,-1.3385 6.39998,-2.2952 4.55152,-5.5782 -1.57437,-3.7163 -5.60834,-7.1786 -5.47069,-10.572 0.36376,-3.4874 3.38173,-4.4608 1.05263,-6.3066 -2.62018,-1.5899 -3.81464,3.2191 -6.25449,1.6292 z"
       id="path16-1-7-7-1-9"
       sodipodi:nodetypes="cccccccccc" /><path
       style="fill:#808080;fill-opacity:1;stroke:none;stroke-width:0.264583;stroke-dasharray:none;stroke-opacity:1"
       d="m -362.68191,1225.5232 -5.10184,-2.5965 -5.64847,2.8698 6.83283,7.8805 6.96947,0.6378 -2.41426,13.8023 10.52255,-7.3339 -8.2905,-10.887 3.37087,-7.7894 z"
       id="path27-9-4-9" /></g></svg>
