<?xml version="1.0" encoding="UTF-8" standalone="no"?>
<!-- Created with Inkscape (http://www.inkscape.org/) -->

<svg
   width="189.13853mm"
   height="189.13844mm"
   viewBox="0 0 189.13853 189.13844"
   version="1.1"
   id="svg1"
   inkscape:version="1.4 (86a8ad7, 2024-10-11)"
   sodipodi:docname="magistrs.svg"
   xml:space="preserve"
   inkscape:export-batch-path="..\Desktop\Adeles draziņa\Formas"
   inkscape:export-batch-name="magistrs"
   xmlns:inkscape="http://www.inkscape.org/namespaces/inkscape"
   xmlns:sodipodi="http://sodipodi.sourceforge.net/DTD/sodipodi-0.dtd"
   xmlns:xlink="http://www.w3.org/1999/xlink"
   xmlns="http://www.w3.org/2000/svg"
   xmlns:svg="http://www.w3.org/2000/svg"><sodipodi:namedview
     id="namedview1"
     pagecolor="#d4d4d4"
     bordercolor="#eeeeee"
     borderopacity="1"
     inkscape:showpageshadow="false"
     inkscape:pageopacity="0"
     inkscape:pagecheckerboard="false"
     inkscape:deskcolor="#c7c7c7"
     inkscape:document-units="mm"
     inkscape:zoom="0.25669573"
     inkscape:cx="-2837.9904"
     inkscape:cy="5335.1102"
     inkscape:window-width="1920"
     inkscape:window-height="1009"
     inkscape:window-x="-8"
     inkscape:window-y="-8"
     inkscape:window-maximized="1"
     inkscape:current-layer="layer1"
     labelstyle="default"
     showborder="false"
     borderlayer="false"
     inkscape:clip-to-page="false"
     showgrid="false"><inkscape:page
       x="0"
       y="0"
       width="189.13853"
       height="189.13844"
       id="page5"
       margin="0"
       bleed="0" /></sodipodi:namedview><defs
     id="defs1"><color-profile
       name="Adobe-RGB-1998"
       xlink:href="../../../../../WINDOWS/system32/spool/drivers/color/AdobeRGB1998.icc"
       id="color-profile1" /><color-profile
       name="Adobe-RGB-1998"
       xlink:href="file:///WINDOWS/system32/spool/drivers/color/AdobeRGB1998.icc"
       id="color-profile2" /><inkscape:path-effect
       effect="fillet_chamfer"
       id="path-effect23-1-0-7"
       is_visible="true"
       lpeversion="1"
       nodesatellites_param="F,0,0,1,0,0,0,1 @ F,0,0,1,0,8.2489343,0,1 @ F,0,0,1,0,0,0,1 @ F,0,0,1,0,0,0,1 @ F,0,0,1,0,0,0,1 @ F,0,0,1,0,0,0,1 @ F,0,0,1,0,0,0,1 @ F,0,0,1,0,0,0,1"
       radius="0"
       unit="px"
       method="auto"
       mode="F"
       chamfer_steps="1"
       flexible="false"
       use_knot_distance="true"
       apply_no_radius="true"
       apply_with_radius="true"
       only_selected="false"
       hide_knots="false" /><inkscape:path-effect
       effect="fillet_chamfer"
       id="path-effect23-1-0-32-6"
       is_visible="true"
       lpeversion="1"
       nodesatellites_param="F,0,0,1,0,0,0,1 @ F,0,0,1,0,8.2489343,0,1 @ F,0,0,1,0,0,0,1 @ F,0,0,1,0,0,0,1 @ F,0,0,1,0,0,0,1 @ F,0,0,1,0,0,0,1 @ F,0,0,1,0,0,0,1 @ F,0,0,1,0,0,0,1"
       radius="0"
       unit="px"
       method="auto"
       mode="F"
       chamfer_steps="1"
       flexible="false"
       use_knot_distance="true"
       apply_no_radius="true"
       apply_with_radius="true"
       only_selected="false"
       hide_knots="false" /><inkscape:path-effect
       effect="fillet_chamfer"
       id="path-effect23-1-36-5-9"
       is_visible="true"
       lpeversion="1"
       nodesatellites_param="F,0,0,1,0,0,0,1 @ F,0,0,1,0,8.2489343,0,1 @ F,0,0,1,0,0,0,1 @ F,0,0,1,0,0,0,1 @ F,0,0,1,0,0,0,1 @ F,0,0,1,0,0,0,1 @ F,0,0,1,0,0,0,1 @ F,0,0,1,0,0,0,1"
       radius="0"
       unit="px"
       method="auto"
       mode="F"
       chamfer_steps="1"
       flexible="false"
       use_knot_distance="true"
       apply_no_radius="true"
       apply_with_radius="true"
       only_selected="false"
       hide_knots="false" /><inkscape:path-effect
       effect="fillet_chamfer"
       id="path-effect23-1-4-3-35"
       is_visible="true"
       lpeversion="1"
       nodesatellites_param="F,0,0,1,0,0,0,1 @ F,0,0,1,0,8.2489343,0,1 @ F,0,0,1,0,0,0,1 @ F,0,0,1,0,0,0,1 @ F,0,0,1,0,0,0,1 @ F,0,0,1,0,0,0,1 @ F,0,0,1,0,0,0,1 @ F,0,0,1,0,0,0,1"
       radius="0"
       unit="px"
       method="auto"
       mode="F"
       chamfer_steps="1"
       flexible="false"
       use_knot_distance="true"
       apply_no_radius="true"
       apply_with_radius="true"
       only_selected="false"
       hide_knots="false" /><inkscape:path-effect
       effect="fillet_chamfer"
       id="path-effect23-1-5-1-7"
       is_visible="true"
       lpeversion="1"
       nodesatellites_param="F,0,0,1,0,0,0,1 @ F,0,0,1,0,8.2489343,0,1 @ F,0,0,1,0,0,0,1 @ F,0,0,1,0,0,0,1 @ F,0,0,1,0,0,0,1 @ F,0,0,1,0,0,0,1 @ F,0,0,1,0,0,0,1 @ F,0,0,1,0,0,0,1"
       radius="0"
       unit="px"
       method="auto"
       mode="F"
       chamfer_steps="1"
       flexible="false"
       use_knot_distance="true"
       apply_no_radius="true"
       apply_with_radius="true"
       only_selected="false"
       hide_knots="false" /><inkscape:path-effect
       effect="fillet_chamfer"
       id="path-effect23-1-9-0-6"
       is_visible="true"
       lpeversion="1"
       nodesatellites_param="F,0,0,1,0,0,0,1 @ F,0,0,1,0,8.2489343,0,1 @ F,0,0,1,0,0,0,1 @ F,0,0,1,0,0,0,1 @ F,0,0,1,0,0,0,1 @ F,0,0,1,0,0,0,1 @ F,0,0,1,0,0,0,1 @ F,0,0,1,0,0,0,1"
       radius="0"
       unit="px"
       method="auto"
       mode="F"
       chamfer_steps="1"
       flexible="false"
       use_knot_distance="true"
       apply_no_radius="true"
       apply_with_radius="true"
       only_selected="false"
       hide_knots="false" /><inkscape:path-effect
       effect="fillet_chamfer"
       id="path-effect23-1-40-6-65"
       is_visible="true"
       lpeversion="1"
       nodesatellites_param="F,0,0,1,0,0,0,1 @ F,0,0,1,0,8.2489343,0,1 @ F,0,0,1,0,0,0,1 @ F,0,0,1,0,0,0,1 @ F,0,0,1,0,0,0,1 @ F,0,0,1,0,0,0,1 @ F,0,0,1,0,0,0,1 @ F,0,0,1,0,0,0,1"
       radius="0"
       unit="px"
       method="auto"
       mode="F"
       chamfer_steps="1"
       flexible="false"
       use_knot_distance="true"
       apply_no_radius="true"
       apply_with_radius="true"
       only_selected="false"
       hide_knots="false" /><inkscape:path-effect
       effect="fillet_chamfer"
       id="path-effect23-1-2-7-82"
       is_visible="true"
       lpeversion="1"
       nodesatellites_param="F,0,0,1,0,0,0,1 @ F,0,0,1,0,8.2489343,0,1 @ F,0,0,1,0,0,0,1 @ F,0,0,1,0,0,0,1 @ F,0,0,1,0,0,0,1 @ F,0,0,1,0,0,0,1 @ F,0,0,1,0,0,0,1 @ F,0,0,1,0,0,0,1"
       radius="0"
       unit="px"
       method="auto"
       mode="F"
       chamfer_steps="1"
       flexible="false"
       use_knot_distance="true"
       apply_no_radius="true"
       apply_with_radius="true"
       only_selected="false"
       hide_knots="false" /><inkscape:path-effect
       effect="fillet_chamfer"
       id="path-effect23-1-1-5-5"
       is_visible="true"
       lpeversion="1"
       nodesatellites_param="F,0,0,1,0,0,0,1 @ F,0,0,1,0,8.2489343,0,1 @ F,0,0,1,0,0,0,1 @ F,0,0,1,0,0,0,1 @ F,0,0,1,0,0,0,1 @ F,0,0,1,0,0,0,1 @ F,0,0,1,0,0,0,1 @ F,0,0,1,0,0,0,1"
       radius="0"
       unit="px"
       method="auto"
       mode="F"
       chamfer_steps="1"
       flexible="false"
       use_knot_distance="true"
       apply_no_radius="true"
       apply_with_radius="true"
       only_selected="false"
       hide_knots="false" /><inkscape:path-effect
       effect="fillet_chamfer"
       id="path-effect23-1-44-0-4"
       is_visible="true"
       lpeversion="1"
       nodesatellites_param="F,0,0,1,0,0,0,1 @ F,0,0,1,0,8.2489343,0,1 @ F,0,0,1,0,0,0,1 @ F,0,0,1,0,0,0,1 @ F,0,0,1,0,0,0,1 @ F,0,0,1,0,0,0,1 @ F,0,0,1,0,0,0,1 @ F,0,0,1,0,0,0,1"
       radius="0"
       unit="px"
       method="auto"
       mode="F"
       chamfer_steps="1"
       flexible="false"
       use_knot_distance="true"
       apply_no_radius="true"
       apply_with_radius="true"
       only_selected="false"
       hide_knots="false" /><inkscape:path-effect
       effect="fillet_chamfer"
       id="path-effect23-1-30-0-4"
       is_visible="true"
       lpeversion="1"
       nodesatellites_param="F,0,0,1,0,0,0,1 @ F,0,0,1,0,8.2489343,0,1 @ F,0,0,1,0,0,0,1 @ F,0,0,1,0,0,0,1 @ F,0,0,1,0,0,0,1 @ F,0,0,1,0,0,0,1 @ F,0,0,1,0,0,0,1 @ F,0,0,1,0,0,0,1"
       radius="0"
       unit="px"
       method="auto"
       mode="F"
       chamfer_steps="1"
       flexible="false"
       use_knot_distance="true"
       apply_no_radius="true"
       apply_with_radius="true"
       only_selected="false"
       hide_knots="false" /><inkscape:path-effect
       effect="fillet_chamfer"
       id="path-effect23-1-303-4-1"
       is_visible="true"
       lpeversion="1"
       nodesatellites_param="F,0,0,1,0,0,0,1 @ F,0,0,1,0,8.2489343,0,1 @ F,0,0,1,0,0,0,1 @ F,0,0,1,0,0,0,1 @ F,0,0,1,0,0,0,1 @ F,0,0,1,0,0,0,1 @ F,0,0,1,0,0,0,1 @ F,0,0,1,0,0,0,1"
       radius="0"
       unit="px"
       method="auto"
       mode="F"
       chamfer_steps="1"
       flexible="false"
       use_knot_distance="true"
       apply_no_radius="true"
       apply_with_radius="true"
       only_selected="false"
       hide_knots="false" /></defs><g
     inkscape:label="Slānis 1"
     inkscape:groupmode="layer"
     id="layer1"
     transform="translate(936.10837,-1583.606)"><rect
       style="fill:#ffffff;fill-opacity:1;stroke:none;stroke-width:0.264583;stroke-opacity:1"
       id="rect39-4-6-5-8-2-5"
       width="189.13849"
       height="189.13849"
       x="-936.10828"
       y="1583.6061"
       inkscape:export-filename="..\Documents\adeles-magistrs\meklesana\fixation.svg"
       inkscape:export-xdpi="96"
       inkscape:export-ydpi="96" /><path
       d="m -842.55919,1671.816 v 5.3389 h -5.339 v 2.0402 h 5.339 v 5.3391 h 2.0402 v -5.3391 h 5.3392 v -2.0402 h -5.3392 v -5.3389 z"
       style="fill:#808080;stroke-width:0.126062"
       id="path1-8-32-2-4-1-3-5-8-16-0"
       inkscape:export-filename="..\Documents\Dev\eksperimenta-svg-faili\fixation.png"
       inkscape:export-xdpi="96"
       inkscape:export-ydpi="96" /><path
       style="fill:#808080;stroke-width:0.264583"
       d="m -325.42454,718.63066 -16.51283,11.28809 a 12.568608,12.568608 112.3663 0 0 -5.24846,12.75499 l 2.81159,14.58516 24.23375,1.27545 6.19508,-18.03865 c 0,0 -12.20795,-5.46624 -14.57669,5.28404 -2.36871,10.75032 -5.83067,-12.20795 -5.83067,-12.20795 0,0 13.08479,1.8431 18.22085,-2.55092 3.52991,-3.01992 -9.29262,-12.39021 -9.29262,-12.39021 z"
       id="path5-3-49-1"
       sodipodi:nodetypes="cccccscsc"
       inkscape:path-effect="#path-effect23-1-0-7"
       inkscape:original-d="m -325.42454,718.63066 -23.32269,15.94327 4.37299,22.68497 24.23375,1.27545 6.19508,-18.03865 c 0,0 -12.20795,-5.46624 -14.57669,5.28404 -2.36871,10.75032 -5.83067,-12.20795 -5.83067,-12.20795 0,0 13.08479,1.8431 18.22085,-2.55092 3.52991,-3.01992 -9.29262,-12.39021 -9.29262,-12.39021 z"
       transform="matrix(0.58172737,0,0,0.58172737,-674.63106,1181.3966)" /><path
       style="fill:#808080;stroke-width:0.264583"
       d="m -325.42454,718.63066 -16.51283,11.28809 a 12.568608,12.568608 112.3663 0 0 -5.24846,12.75499 l 2.81159,14.58516 24.23375,1.27545 6.19508,-18.03865 c 0,0 -12.20795,-5.46624 -14.57669,5.28404 -2.36871,10.75032 -5.83067,-12.20795 -5.83067,-12.20795 0,0 13.08479,1.8431 18.22085,-2.55092 3.52991,-3.01992 -9.29262,-12.39021 -9.29262,-12.39021 z"
       id="path5-3-49-2-6"
       sodipodi:nodetypes="cccccscsc"
       inkscape:path-effect="#path-effect23-1-0-32-6"
       inkscape:original-d="m -325.42454,718.63066 -23.32269,15.94327 4.37299,22.68497 24.23375,1.27545 6.19508,-18.03865 c 0,0 -12.20795,-5.46624 -14.57669,5.28404 -2.36871,10.75032 -5.83067,-12.20795 -5.83067,-12.20795 0,0 13.08479,1.8431 18.22085,-2.55092 3.52991,-3.01992 -9.29262,-12.39021 -9.29262,-12.39021 z"
       transform="matrix(0.58172737,0,0,0.58172737,-640.52053,1177.2549)" /><path
       style="fill:#808080;stroke-width:0.264583"
       d="m -325.42454,718.63066 -16.51283,11.28809 a 12.568608,12.568608 112.3663 0 0 -5.24846,12.75499 l 2.81159,14.58516 24.23375,1.27545 6.19508,-18.03865 c 0,0 -12.20795,-5.46624 -14.57669,5.28404 -2.36871,10.75032 -5.83067,-12.20795 -5.83067,-12.20795 0,0 13.08479,1.8431 18.22085,-2.55092 3.52991,-3.01992 -9.29262,-12.39021 -9.29262,-12.39021 z"
       id="path5-3-86-56-3"
       sodipodi:nodetypes="cccccscsc"
       inkscape:path-effect="#path-effect23-1-36-5-9"
       inkscape:original-d="m -325.42454,718.63066 -23.32269,15.94327 4.37299,22.68497 24.23375,1.27545 6.19508,-18.03865 c 0,0 -12.20795,-5.46624 -14.57669,5.28404 -2.36871,10.75032 -5.83067,-12.20795 -5.83067,-12.20795 0,0 13.08479,1.8431 18.22085,-2.55092 3.52991,-3.01992 -9.29262,-12.39021 -9.29262,-12.39021 z"
       transform="matrix(0.58172737,0,0,0.58172737,-577.38375,1248.5216)" /><path
       style="fill:#808080;stroke-width:0.264583"
       d="m -325.42454,718.63066 -16.51283,11.28809 a 12.568608,12.568608 112.3663 0 0 -5.24846,12.75499 l 2.81159,14.58516 24.23375,1.27545 6.19508,-18.03865 c 0,0 -12.20795,-5.46624 -14.57669,5.28404 -2.36871,10.75032 -5.83067,-12.20795 -5.83067,-12.20795 0,0 13.08479,1.8431 18.22085,-2.55092 3.52991,-3.01992 -9.29262,-12.39021 -9.29262,-12.39021 z"
       id="path5-3-2-4-3"
       sodipodi:nodetypes="cccccscsc"
       inkscape:path-effect="#path-effect23-1-4-3-35"
       inkscape:original-d="m -325.42454,718.63066 -23.32269,15.94327 4.37299,22.68497 24.23375,1.27545 6.19508,-18.03865 c 0,0 -12.20795,-5.46624 -14.57669,5.28404 -2.36871,10.75032 -5.83067,-12.20795 -5.83067,-12.20795 0,0 13.08479,1.8431 18.22085,-2.55092 3.52991,-3.01992 -9.29262,-12.39021 -9.29262,-12.39021 z"
       transform="matrix(0.58172737,0,0,0.58172737,-585.60683,1281.8842)" /><path
       style="fill:#808080;stroke-width:0.264583"
       d="m -325.42454,718.63066 -16.51283,11.28809 a 12.568608,12.568608 112.3663 0 0 -5.24846,12.75499 l 2.81159,14.58516 24.23375,1.27545 6.19508,-18.03865 c 0,0 -12.20795,-5.46624 -14.57669,5.28404 -2.36871,10.75032 -5.83067,-12.20795 -5.83067,-12.20795 0,0 13.08479,1.8431 18.22085,-2.55092 3.52991,-3.01992 -9.29262,-12.39021 -9.29262,-12.39021 z"
       id="path5-3-3-8-5"
       sodipodi:nodetypes="cccccscsc"
       inkscape:path-effect="#path-effect23-1-5-1-7"
       inkscape:original-d="m -325.42454,718.63066 -23.32269,15.94327 4.37299,22.68497 24.23375,1.27545 6.19508,-18.03865 c 0,0 -12.20795,-5.46624 -14.57669,5.28404 -2.36871,10.75032 -5.83067,-12.20795 -5.83067,-12.20795 0,0 13.08479,1.8431 18.22085,-2.55092 3.52991,-3.01992 -9.29262,-12.39021 -9.29262,-12.39021 z"
       transform="matrix(0.58172737,0,0,0.58172737,-702.90962,1296.1273)" /><path
       style="fill:#808080;stroke-width:0.264583"
       d="m -325.42454,718.63066 -16.51283,11.28809 a 12.568608,12.568608 112.3663 0 0 -5.24846,12.75499 l 2.81159,14.58516 24.23375,1.27545 6.19508,-18.03865 c 0,0 -12.20795,-5.46624 -14.57669,5.28404 -2.36871,10.75032 -5.83067,-12.20795 -5.83067,-12.20795 0,0 13.08479,1.8431 18.22085,-2.55092 3.52991,-3.01992 -9.29262,-12.39021 -9.29262,-12.39021 z"
       id="path5-3-9-21-5"
       sodipodi:nodetypes="cccccscsc"
       inkscape:path-effect="#path-effect23-1-9-0-6"
       inkscape:original-d="m -325.42454,718.63066 -23.32269,15.94327 4.37299,22.68497 24.23375,1.27545 6.19508,-18.03865 c 0,0 -12.20795,-5.46624 -14.57669,5.28404 -2.36871,10.75032 -5.83067,-12.20795 -5.83067,-12.20795 0,0 13.08479,1.8431 18.22085,-2.55092 3.52991,-3.01992 -9.29262,-12.39021 -9.29262,-12.39021 z"
       transform="matrix(0.58172737,0,0,0.58172737,-608.39241,1307.6038)" /><path
       style="fill:#808080;stroke-width:0.264583"
       d="m -325.42454,718.63066 -16.51283,11.28809 a 12.568608,12.568608 112.3663 0 0 -5.24846,12.75499 l 2.81159,14.58516 24.23375,1.27545 6.19508,-18.03865 c 0,0 -12.20795,-5.46624 -14.57669,5.28404 -2.36871,10.75032 -5.83067,-12.20795 -5.83067,-12.20795 0,0 13.08479,1.8431 18.22085,-2.55092 3.52991,-3.01992 -9.29262,-12.39021 -9.29262,-12.39021 z"
       id="path5-3-96-6-3"
       sodipodi:nodetypes="cccccscsc"
       inkscape:path-effect="#path-effect23-1-40-6-65"
       inkscape:original-d="m -325.42454,718.63066 -23.32269,15.94327 4.37299,22.68497 24.23375,1.27545 6.19508,-18.03865 c 0,0 -12.20795,-5.46624 -14.57669,5.28404 -2.36871,10.75032 -5.83067,-12.20795 -5.83067,-12.20795 0,0 13.08479,1.8431 18.22085,-2.55092 3.52991,-3.01992 -9.29262,-12.39021 -9.29262,-12.39021 z"
       transform="matrix(0.58172737,0,0,0.58172737,-718.87801,1265.7022)" /><path
       style="fill:#808080;stroke-width:0.264583"
       d="m -325.42454,718.63066 -16.51283,11.28809 a 12.568608,12.568608 112.3663 0 0 -5.24846,12.75499 l 2.81159,14.58516 24.23375,1.27545 6.19508,-18.03865 c 0,0 -12.20795,-5.46624 -14.57669,5.28404 -2.36871,10.75032 -5.83067,-12.20795 -5.83067,-12.20795 0,0 13.08479,1.8431 18.22085,-2.55092 3.52991,-3.01992 -9.29262,-12.39021 -9.29262,-12.39021 z"
       id="path5-3-87-8-2"
       sodipodi:nodetypes="cccccscsc"
       inkscape:path-effect="#path-effect23-1-2-7-82"
       inkscape:original-d="m -325.42454,718.63066 -23.32269,15.94327 4.37299,22.68497 24.23375,1.27545 6.19508,-18.03865 c 0,0 -12.20795,-5.46624 -14.57669,5.28404 -2.36871,10.75032 -5.83067,-12.20795 -5.83067,-12.20795 0,0 13.08479,1.8431 18.22085,-2.55092 3.52991,-3.01992 -9.29262,-12.39021 -9.29262,-12.39021 z"
       transform="matrix(0.58172737,0,0,0.58172737,-718.87801,1231.3411)" /><path
       style="fill:#808080;stroke-width:0.264583"
       d="m -325.42454,718.63066 -16.51283,11.28809 a 12.568608,12.568608 112.3663 0 0 -5.24846,12.75499 l 2.81159,14.58516 24.23375,1.27545 6.19508,-18.03865 c 0,0 -12.20795,-5.46624 -14.57669,5.28404 -2.36871,10.75032 -5.83067,-12.20795 -5.83067,-12.20795 0,0 13.08479,1.8431 18.22085,-2.55092 3.52991,-3.01992 -9.29262,-12.39021 -9.29262,-12.39021 z"
       id="path5-3-5-3-82"
       sodipodi:nodetypes="cccccscsc"
       inkscape:path-effect="#path-effect23-1-1-5-5"
       inkscape:original-d="m -325.42454,718.63066 -23.32269,15.94327 4.37299,22.68497 24.23375,1.27545 6.19508,-18.03865 c 0,0 -12.20795,-5.46624 -14.57669,5.28404 -2.36871,10.75032 -5.83067,-12.20795 -5.83067,-12.20795 0,0 13.08479,1.8431 18.22085,-2.55092 3.52991,-3.01992 -9.29262,-12.39021 -9.29262,-12.39021 z"
       transform="matrix(0.58172737,0,0,0.58172737,-640.52059,1319.7884)" /><path
       style="fill:#808080;stroke-width:0.264583"
       d="m -325.42454,718.63066 -16.51283,11.28809 a 12.568608,12.568608 112.3663 0 0 -5.24846,12.75499 l 2.81159,14.58516 24.23375,1.27545 6.19508,-18.03865 c 0,0 -12.20795,-5.46624 -14.57669,5.28404 -2.36871,10.75032 -5.83067,-12.20795 -5.83067,-12.20795 0,0 13.08479,1.8431 18.22085,-2.55092 3.52991,-3.01992 -9.29262,-12.39021 -9.29262,-12.39021 z"
       id="path5-3-4-1-5"
       sodipodi:nodetypes="cccccscsc"
       inkscape:path-effect="#path-effect23-1-44-0-4"
       inkscape:original-d="m -325.42454,718.63066 -23.32269,15.94327 4.37299,22.68497 24.23375,1.27545 6.19508,-18.03865 c 0,0 -12.20795,-5.46624 -14.57669,5.28404 -2.36871,10.75032 -5.83067,-12.20795 -5.83067,-12.20795 0,0 13.08479,1.8431 18.22085,-2.55092 3.52991,-3.01992 -9.29262,-12.39021 -9.29262,-12.39021 z"
       transform="matrix(0.58172737,0,0,0.58172737,-674.63106,1315.6466)" /><path
       style="fill:#808080;stroke-width:0.264583"
       d="m -325.42454,718.63066 -16.51283,11.28809 a 12.568608,12.568608 112.3663 0 0 -5.24846,12.75499 l 2.81159,14.58516 24.23375,1.27545 6.19508,-18.03865 c 0,0 -12.20795,-5.46624 -14.57669,5.28404 -2.36871,10.75032 -5.83067,-12.20795 -5.83067,-12.20795 0,0 13.08479,1.8431 18.22085,-2.55092 3.52991,-3.01992 -9.29262,-12.39021 -9.29262,-12.39021 z"
       id="path5-3-7-4-36"
       sodipodi:nodetypes="cccccscsc"
       inkscape:path-effect="#path-effect23-1-30-0-4"
       inkscape:original-d="m -325.42454,718.63066 -23.32269,15.94327 4.37299,22.68497 24.23375,1.27545 6.19508,-18.03865 c 0,0 -12.20795,-5.46624 -14.57669,5.28404 -2.36871,10.75032 -5.83067,-12.20795 -5.83067,-12.20795 0,0 13.08479,1.8431 18.22085,-2.55092 3.52991,-3.01992 -9.29262,-12.39021 -9.29262,-12.39021 z"
       transform="matrix(0.58172737,0,0,0.58172737,-608.39241,1189.4395)" /><path
       style="fill:#808080;stroke-width:0.264583"
       d="m -325.42454,718.63066 -16.51283,11.28809 a 12.568608,12.568608 112.3663 0 0 -5.24846,12.75499 l 2.81159,14.58516 24.23375,1.27545 6.19508,-18.03865 c 0,0 -12.20795,-5.46624 -14.57669,5.28404 -2.36871,10.75032 -5.83067,-12.20795 -5.83067,-12.20795 0,0 13.08479,1.8431 18.22085,-2.55092 3.52991,-3.01992 -9.29262,-12.39021 -9.29262,-12.39021 z"
       id="path5-3-25-8-1"
       sodipodi:nodetypes="cccccscsc"
       inkscape:path-effect="#path-effect23-1-303-4-1"
       inkscape:original-d="m -325.42454,718.63066 -23.32269,15.94327 4.37299,22.68497 24.23375,1.27545 6.19508,-18.03865 c 0,0 -12.20795,-5.46624 -14.57669,5.28404 -2.36871,10.75032 -5.83067,-12.20795 -5.83067,-12.20795 0,0 13.08479,1.8431 18.22085,-2.55092 3.52991,-3.01992 -9.29262,-12.39021 -9.29262,-12.39021 z"
       transform="matrix(0.58172737,0,0,0.58172737,-585.60683,1215.1591)" /><path
       d="m -895.39351,1618.4935 -0.0592,2.416 -0.005,0.2484 -5.18532,3.4667 -0.20382,-0.3226 -0.54622,-0.8651 -0.0468,1.2433 -0.0183,0.4903 -0.15301,-0.3808 -1.02119,-2.5405 0.18548,3.0738 0.043,0.7143 -0.26212,-0.5745 -0.45544,-0.9987 0.12897,1.2067 c -1.44659,0.9234 -2.89375,1.8469 -4.34241,2.7705 l 1.58756,6.7734 -1.15166,0.4317 1.27672,0.1005 0.20652,0.016 0.8778,0.069 -0.69562,0.2951 -0.27237,0.1154 -1.24305,0.5267 1.37292,0.028 0.48219,0.011 0.0186,3e-4 -0.0123,0.013 -0.39171,0.3918 -0.86998,0.8699 0.96889,-0.4491 1.0254,4.3756 13.99157,0.636 2.1461,-6.141 2.59161,-1.9816 -2.02676,0.3655 1.10476,-3.1606 -2.33188,3.286 -0.21193,-3.286 -1.69608,4.0278 -1.05997,-4.1337 -0.95385,4.7696 -1.05997,-4.4517 -1.27191,3.8158 -3.39185,-7.3135 4.3457,1.5898 -2.33187,-3.3918 5.40568,2.4377 -2.33187,-4.1337 7.10174,4.4518 -2.99954,-4.1636 0.33698,-0.1529 2.92289,1.9486 -1.19916,-2.5485 3.85991,-0.3372 -4.23447,-0.9367 -2.84653,0.4161 -0.26785,-0.3716 1.40688,-0.6379 -1.84338,0.031 -1.20396,0.02 0.65714,-0.78 0.61476,-0.7303 -0.88772,0.3515 -1.41769,-1.9678 c -0.34525,0.2114 -0.68106,0.423 -1.02392,0.6345 l -0.18516,-0.6836 -0.0442,0.8259 -0.0538,1.004 -0.24561,-0.8186 z"
       style="fill:#808080;stroke-width:0.187929"
       id="path26-3-4-8" /></g></svg>
