<?xml version="1.0" encoding="UTF-8" standalone="no"?>
<!-- Created with Inkscape (http://www.inkscape.org/) -->

<svg
   width="189.13853mm"
   height="189.13844mm"
   viewBox="0 0 189.13853 189.13844"
   version="1.1"
   id="svg1"
   inkscape:version="1.4 (86a8ad7, 2024-10-11)"
   sodipodi:docname="magistrs.svg"
   xml:space="preserve"
   inkscape:export-batch-path="..\Desktop\Adeles draziņa\Formas"
   inkscape:export-batch-name="magistrs"
   xmlns:inkscape="http://www.inkscape.org/namespaces/inkscape"
   xmlns:sodipodi="http://sodipodi.sourceforge.net/DTD/sodipodi-0.dtd"
   xmlns:xlink="http://www.w3.org/1999/xlink"
   xmlns="http://www.w3.org/2000/svg"
   xmlns:svg="http://www.w3.org/2000/svg"><sodipodi:namedview
     id="namedview1"
     pagecolor="#d4d4d4"
     bordercolor="#eeeeee"
     borderopacity="1"
     inkscape:showpageshadow="false"
     inkscape:pageopacity="0"
     inkscape:pagecheckerboard="false"
     inkscape:deskcolor="#c7c7c7"
     inkscape:document-units="mm"
     inkscape:zoom="0.25669573"
     inkscape:cx="-2837.9904"
     inkscape:cy="5335.1102"
     inkscape:window-width="1920"
     inkscape:window-height="1009"
     inkscape:window-x="-8"
     inkscape:window-y="-8"
     inkscape:window-maximized="1"
     inkscape:current-layer="layer1"
     labelstyle="default"
     showborder="false"
     borderlayer="false"
     inkscape:clip-to-page="false"
     showgrid="false"><inkscape:page
       x="0"
       y="0"
       width="189.13853"
       height="189.13844"
       id="page5"
       margin="0"
       bleed="0" /></sodipodi:namedview><defs
     id="defs1"><color-profile
       name="Adobe-RGB-1998"
       xlink:href="../../../../../../../WINDOWS/system32/spool/drivers/color/AdobeRGB1998.icc"
       id="color-profile1" /><color-profile
       name="Adobe-RGB-1998"
       xlink:href="file:///WINDOWS/system32/spool/drivers/color/AdobeRGB1998.icc"
       id="color-profile2" /></defs><g
     inkscape:label="Slānis 1"
     inkscape:groupmode="layer"
     id="layer1"
     transform="translate(1133.8984,-1179.4977)"><rect
       style="fill:#ffffff;fill-opacity:1;stroke:none;stroke-width:0.264583;stroke-opacity:1"
       id="rect39-4-6-5-8-1"
       width="189.13849"
       height="189.13849"
       x="-1133.8982"
       y="1179.4978"
       inkscape:export-filename="..\Documents\adeles-magistrs\meklesana\fixation.svg"
       inkscape:export-xdpi="96"
       inkscape:export-ydpi="96" /><path
       d="m -1040.3491,1267.7078 v 5.3388 h -5.339 v 2.0402 h 5.339 v 5.3391 h 2.0402 v -5.3391 h 5.3392 v -2.0402 h -5.3392 v -5.3388 z"
       style="fill:#808080;stroke-width:0.126062"
       id="path1-8-32-2-4-1-3-5-8-8"
       inkscape:export-filename="..\Documents\Dev\eksperimenta-svg-faili\fixation.png"
       inkscape:export-xdpi="96"
       inkscape:export-ydpi="96" /><path
       style="fill:#808080;fill-opacity:1;stroke:none;stroke-width:0.264583;stroke-linecap:butt;stroke-linejoin:miter;stroke-dasharray:none;stroke-opacity:1"
       d="m -978.33431,1230.1499 c -2.7479,-1.4823 -7.5433,-1.0166 -7.417,3.1465 0.4039,4.3067 4.9738,6.3883 8.7549,7.0263 3.3337,0.2798 2.5917,4.6948 1.4866,6.8038 -1.1253,2.8007 0.283,6.8873 4.7096,4.6469 2.4691,-1.3385 6.4,-2.2952 4.5515,-5.5782 -1.5743,-3.7163 -5.6083,-7.1786 -5.4707,-10.572 0.3638,-3.4874 3.3818,-4.4608 1.0527,-6.3066 -2.6202,-1.5899 -3.8147,3.2191 -6.2545,1.6292 z"
       id="path16-1-7-7-9-9"
       sodipodi:nodetypes="cccccccccc" /><path
       style="fill:#808080;fill-opacity:1;stroke:none;stroke-width:0.264583;stroke-linecap:butt;stroke-linejoin:miter;stroke-dasharray:none;stroke-opacity:1"
       d="m -1001.12,1204.4302 c -2.7478,-1.4822 -7.5433,-1.0165 -7.4169,3.1466 0.4039,4.3066 4.9738,6.3883 8.75481,7.0263 3.3337,0.2798 2.5917,4.6948 1.4867,6.8038 -1.1254,2.8007 0.283,6.8873 4.7096,4.6469 2.4691,-1.3385 6.4,-2.2952 4.5515,-5.5782 -1.5744,-3.7163 -5.6083,-7.1786 -5.4707,-10.572 0.3638,-3.4874 3.3817,-4.4608 1.0526,-6.3066 -2.6201,-1.5899 -3.8146,3.2191 -6.2545,1.6292 z"
       id="path16-1-7-7-9-1-7"
       sodipodi:nodetypes="cccccccccc" /><path
       style="fill:#808080;fill-opacity:1;stroke:none;stroke-width:0.264583;stroke-linecap:butt;stroke-linejoin:miter;stroke-dasharray:none;stroke-opacity:1"
       d="m -1033.2481,1192.2457 c -2.7479,-1.4822 -7.5433,-1.0165 -7.417,3.1466 0.4039,4.3066 4.9739,6.3883 8.7549,7.0263 3.3337,0.2797 2.5917,4.6948 1.4867,6.8037 -1.1254,2.8007 0.283,6.8873 4.7095,4.6469 2.4691,-1.3385 6.4,-2.2952 4.5515,-5.5782 -1.5743,-3.7162 -5.6083,-7.1786 -5.4706,-10.5719 0.3637,-3.4875 3.3817,-4.4609 1.0526,-6.3067 -2.6202,-1.5899 -3.8147,3.2191 -6.2545,1.6293 z"
       id="path16-1-7-7-8-3"
       sodipodi:nodetypes="cccccccccc" /><path
       style="fill:#808080;fill-opacity:1;stroke:none;stroke-width:0.264583;stroke-linecap:butt;stroke-linejoin:miter;stroke-dasharray:none;stroke-opacity:1"
       d="m -1067.3586,1196.3874 c -2.7479,-1.4823 -7.5433,-1.0166 -7.417,3.1465 0.4039,4.3068 4.9739,6.3884 8.7549,7.0264 3.3337,0.2798 2.5917,4.6948 1.4867,6.8038 -1.1254,2.8007 0.283,6.8873 4.7096,4.6469 2.4691,-1.3385 6.4,-2.2952 4.5515,-5.5782 -1.5744,-3.7163 -5.6083,-7.1786 -5.4707,-10.572 0.3638,-3.4875 3.3817,-4.4609 1.0526,-6.3067 -2.6201,-1.5899 -3.8146,3.2191 -6.2545,1.6292 z"
       id="path16-1-7-7-2-7"
       sodipodi:nodetypes="cccccccccc" /><path
       style="fill:#808080;fill-opacity:1;stroke:none;stroke-width:0.264583;stroke-linecap:butt;stroke-linejoin:miter;stroke-dasharray:none;stroke-opacity:1"
       d="m -1095.6372,1215.9066 c -2.7478,-1.4822 -7.5433,-1.0165 -7.4169,3.1466 0.4039,4.3066 4.9738,6.3883 8.7548,7.0263 3.3337,0.2798 2.5917,4.6948 1.4867,6.8038 -1.1254,2.8007 0.283,6.8873 4.7096,4.6469 2.4691,-1.3385 6.4,-2.2952 4.5515,-5.5782 -1.5743,-3.7163 -5.6083,-7.1786 -5.4707,-10.572 0.3638,-3.4874 3.3817,-4.4608 1.0526,-6.3066 -2.6201,-1.5899 -3.8146,3.2191 -6.2545,1.6292 z"
       id="path16-1-7-7-24-2"
       sodipodi:nodetypes="cccccccccc" /><path
       style="fill:#808080;fill-opacity:1;stroke:none;stroke-width:0.264583;stroke-linecap:butt;stroke-linejoin:miter;stroke-dasharray:none;stroke-opacity:1"
       d="m -1111.6055,1246.3319 c -2.7479,-1.4823 -7.5433,-1.0166 -7.417,3.1465 0.4039,4.3067 4.9739,6.3883 8.7549,7.0263 3.3337,0.2798 2.5917,4.6948 1.4867,6.8038 -1.1254,2.8007 0.283,6.8873 4.7096,4.6469 2.4691,-1.3385 6.4,-2.2952 4.5515,-5.5782 -1.5744,-3.7163 -5.6083,-7.1786 -5.4707,-10.572 0.3638,-3.4874 3.3817,-4.4608 1.0526,-6.3066 -2.6201,-1.5899 -3.8146,3.2191 -6.2545,1.6292 z"
       id="path16-1-7-7-0-6"
       sodipodi:nodetypes="cccccccccc" /><path
       style="fill:#808080;fill-opacity:1;stroke:none;stroke-width:0.264583;stroke-linecap:butt;stroke-linejoin:miter;stroke-dasharray:none;stroke-opacity:1"
       d="m -1111.6055,1280.693 c -2.7479,-1.4823 -7.5433,-1.0166 -7.417,3.1465 0.4039,4.3067 4.9738,6.3883 8.7549,7.0263 3.3337,0.2798 2.5917,4.6948 1.4866,6.8038 -1.1253,2.8007 0.2831,6.8873 4.7096,4.6469 2.4691,-1.3385 6.4,-2.2952 4.5515,-5.5782 -1.5743,-3.7163 -5.6083,-7.1786 -5.4707,-10.572 0.3638,-3.4874 3.3818,-4.4608 1.0527,-6.3066 -2.6202,-1.5899 -3.8147,3.2191 -6.2545,1.6292 z"
       id="path16-1-7-7-6-0"
       sodipodi:nodetypes="cccccccccc" /><path
       style="fill:#808080;fill-opacity:1;stroke:none;stroke-width:0.264583;stroke-linecap:butt;stroke-linejoin:miter;stroke-dasharray:none;stroke-opacity:1"
       d="m -1095.6371,1311.1181 c -2.7479,-1.4822 -7.5433,-1.0165 -7.417,3.1466 0.4039,4.3066 4.9738,6.3883 8.7549,7.0263 3.3337,0.2798 2.5917,4.6948 1.4866,6.8038 -1.1253,2.8007 0.283,6.8873 4.7096,4.6469 2.4691,-1.3385 6.4,-2.2952 4.5515,-5.5782 -1.5743,-3.7163 -5.6083,-7.1786 -5.4707,-10.572 0.3638,-3.4874 3.3818,-4.4608 1.0527,-6.3066 -2.6202,-1.5899 -3.8147,3.2191 -6.2545,1.6292 z"
       id="path16-1-7-7-93-1"
       sodipodi:nodetypes="cccccccccc" /><path
       style="fill:#808080;fill-opacity:1;stroke:none;stroke-width:0.264583;stroke-linecap:butt;stroke-linejoin:miter;stroke-dasharray:none;stroke-opacity:1"
       d="m -1067.3585,1330.6375 c -2.7479,-1.4823 -7.5433,-1.0166 -7.417,3.1465 0.4039,4.3067 4.9738,6.3883 8.7549,7.0263 3.3337,0.2798 2.5917,4.6948 1.4866,6.8038 -1.1253,2.8007 0.283,6.8873 4.7096,4.6469 2.4691,-1.3385 6.3999,-2.2952 4.5515,-5.5782 -1.5744,-3.7163 -5.6083,-7.1786 -5.4707,-10.572 0.3638,-3.4874 3.3817,-4.4608 1.0527,-6.3066 -2.6202,-1.5899 -3.8147,3.2191 -6.2545,1.6292 z"
       id="path16-1-7-7-06-6"
       sodipodi:nodetypes="cccccccccc" /><path
       style="fill:#808080;fill-opacity:1;stroke:none;stroke-width:0.264583;stroke-linecap:butt;stroke-linejoin:miter;stroke-dasharray:none;stroke-opacity:1"
       d="m -978.33435,1296.8749 c -2.74787,-1.4822 -7.54329,-1.0165 -7.41697,3.1466 0.40392,4.3066 4.97385,6.3883 8.75488,7.0263 3.33371,0.2798 2.5917,4.6948 1.48667,6.8038 -1.12538,2.8007 0.28301,6.8873 4.70957,4.6469 2.46909,-1.3385 6.39998,-2.2952 4.55152,-5.5782 -1.57437,-3.7163 -5.60834,-7.1786 -5.47069,-10.572 0.36376,-3.4874 3.38173,-4.4608 1.05263,-6.3066 -2.62018,-1.5899 -3.81464,3.2191 -6.25449,1.6292 z"
       id="path16-1-7-7-4-5"
       sodipodi:nodetypes="cccccccccc" /><path
       style="fill:#808080;fill-opacity:1;stroke:none;stroke-width:0.264583;stroke-linecap:butt;stroke-linejoin:miter;stroke-dasharray:none;stroke-opacity:1"
       d="m -1033.2481,1334.7791 c -2.7479,-1.4822 -7.5433,-1.0165 -7.417,3.1466 0.4039,4.3066 4.9739,6.3883 8.7549,7.0263 3.3337,0.2797 2.5917,4.6948 1.4867,6.8038 -1.1254,2.8007 0.283,6.8873 4.7095,4.6469 2.4691,-1.3385 6.4,-2.2952 4.5516,-5.5783 -1.5744,-3.7162 -5.6084,-7.1786 -5.4707,-10.5719 0.3637,-3.4874 3.3817,-4.4608 1.0526,-6.3066 -2.6202,-1.5899 -3.8146,3.2191 -6.2545,1.6292 z"
       id="path16-1-7-7-7-7"
       sodipodi:nodetypes="cccccccccc" /><path
       style="fill:#808080;fill-opacity:1;stroke:none;stroke-width:0.264583;stroke-linecap:butt;stroke-linejoin:miter;stroke-dasharray:none;stroke-opacity:1"
       d="m -970.11127,1263.5124 c -2.74787,-1.4823 -7.54329,-1.0166 -7.41697,3.1465 0.40392,4.3068 4.97385,6.3884 8.75488,7.0264 3.33371,0.2798 2.5917,4.6948 1.48667,6.8038 -1.12538,2.8007 0.28301,6.8873 4.70957,4.6469 2.46909,-1.3385 6.39998,-2.2952 4.55152,-5.5782 -1.57437,-3.7163 -5.60834,-7.1786 -5.47069,-10.572 0.36376,-3.4875 3.38173,-4.4609 1.05263,-6.3067 -2.62018,-1.5899 -3.81464,3.2191 -6.25449,1.6292 z"
       id="path16-1-7-7-1-5"
       sodipodi:nodetypes="cccccccccc" /><path
       style="fill:#808080;fill-opacity:1;stroke:none;stroke-width:0.264583;stroke-dasharray:none;stroke-opacity:1"
       d="m -998.75248,1323.5604 -5.10182,-2.5964 -5.6485,2.8698 6.8328,7.8804 6.96952,0.6378 -2.4143,13.8023 10.52259,-7.3339 -8.29049,-10.887 3.3709,-7.7894 z"
       id="path27-9-4-4" /></g></svg>
