<?xml version="1.0" encoding="UTF-8" standalone="no"?>
<!-- Created with Inkscape (http://www.inkscape.org/) -->

<svg
   width="189.13853mm"
   height="189.13858mm"
   viewBox="0 0 189.13853 189.13858"
   version="1.1"
   id="svg1"
   inkscape:version="1.4 (86a8ad7, 2024-10-11)"
   sodipodi:docname="magistrs.svg"
   xml:space="preserve"
   inkscape:export-batch-path="..\Desktop\Adeles draziņa\Formas"
   inkscape:export-batch-name="magistrs"
   xmlns:inkscape="http://www.inkscape.org/namespaces/inkscape"
   xmlns:sodipodi="http://sodipodi.sourceforge.net/DTD/sodipodi-0.dtd"
   xmlns:xlink="http://www.w3.org/1999/xlink"
   xmlns="http://www.w3.org/2000/svg"
   xmlns:svg="http://www.w3.org/2000/svg"><sodipodi:namedview
     id="namedview1"
     pagecolor="#d4d4d4"
     bordercolor="#eeeeee"
     borderopacity="1"
     inkscape:showpageshadow="false"
     inkscape:pageopacity="0"
     inkscape:pagecheckerboard="false"
     inkscape:deskcolor="#c7c7c7"
     inkscape:document-units="mm"
     inkscape:zoom="0.25669573"
     inkscape:cx="-2837.9904"
     inkscape:cy="5335.1102"
     inkscape:window-width="1920"
     inkscape:window-height="1009"
     inkscape:window-x="-8"
     inkscape:window-y="-8"
     inkscape:window-maximized="1"
     inkscape:current-layer="layer1"
     labelstyle="default"
     showborder="false"
     borderlayer="false"
     inkscape:clip-to-page="false"
     showgrid="false"><inkscape:page
       x="0"
       y="0"
       width="189.13853"
       height="189.13858"
       id="page5"
       margin="0"
       bleed="0" /></sodipodi:namedview><defs
     id="defs1"><color-profile
       name="Adobe-RGB-1998"
       xlink:href="../../../../../WINDOWS/system32/spool/drivers/color/AdobeRGB1998.icc"
       id="color-profile1" /><color-profile
       name="Adobe-RGB-1998"
       xlink:href="file:///WINDOWS/system32/spool/drivers/color/AdobeRGB1998.icc"
       id="color-profile2" /></defs><g
     inkscape:label="Slānis 1"
     inkscape:groupmode="layer"
     id="layer1"
     transform="translate(936.04477,-1793.6458)"><rect
       style="fill:#ffffff;fill-opacity:1;stroke:none;stroke-width:0.264583;stroke-opacity:1"
       id="rect39-4-6-5-8-2-38"
       width="189.13849"
       height="189.13849"
       x="-936.04474"
       y="1793.6459"
       inkscape:export-filename="..\Documents\adeles-magistrs\meklesana\fixation.svg"
       inkscape:export-xdpi="96"
       inkscape:export-ydpi="96" /><path
       d="m -842.49558,1881.8558 v 5.3389 h -5.339 v 2.0402 h 5.339 v 5.3391 h 2.0402 v -5.3391 h 5.3392 v -2.0402 h -5.3392 v -5.3389 z"
       style="fill:#808080;stroke-width:0.126062"
       id="path1-8-32-2-4-1-3-5-8-16-9"
       inkscape:export-filename="..\Documents\Dev\eksperimenta-svg-faili\fixation.png"
       inkscape:export-xdpi="96"
       inkscape:export-ydpi="96" /><path
       style="fill:#808080;fill-opacity:1;stroke:none;stroke-width:0.303653;stroke-linecap:butt;stroke-linejoin:miter;stroke-dasharray:none;stroke-opacity:1"
       d="m -900.66676,1838.8141 -5.01178,0.1842 0.0727,9.6511 6.68238,-0.184 0.2179,3.1455 5.15704,-0.1842 -0.2179,-8.746 h 9.02259 l -0.36317,-6.4442 -7.17719,0.1189 v -6.6283 l -8.23722,-0.1192 c -0.0568,8.8544 0.003,0.075 -0.14526,9.2062 z"
       id="path7-1-4-5-2-9"
       sodipodi:nodetypes="ccccccccccccc" /><path
       style="fill:#808080;fill-opacity:1;stroke:none;stroke-width:0.303653;stroke-linecap:butt;stroke-linejoin:miter;stroke-dasharray:none;stroke-opacity:1"
       d="m -872.38817,1819.2947 -5.01179,0.1842 0.0727,9.6513 6.68237,-0.1841 0.21791,3.1455 5.15703,-0.1842 -0.21791,-8.7461 h 9.02259 l -0.36318,-6.4443 -7.17718,0.1191 v -6.6285 l -8.23722,-0.119 c -0.0568,8.8543 0.003,0.074 -0.14525,9.2061 z"
       id="path7-1-4-5-2-4-7"
       sodipodi:nodetypes="ccccccccccccc" /><path
       style="fill:#808080;fill-opacity:1;stroke:none;stroke-width:0.303653;stroke-linecap:butt;stroke-linejoin:miter;stroke-dasharray:none;stroke-opacity:1"
       d="m -838.27766,1815.1531 -5.01176,0.1842 0.0727,9.6514 6.68233,-0.1842 0.21793,3.1454 5.15704,-0.1842 -0.21791,-8.746 h 9.02258 l -0.36317,-6.4442 -7.17718,0.1191 v -6.6285 l -8.23722,-0.1192 c -0.0569,8.8543 0.003,0.075 -0.14527,9.2062 z"
       id="path7-1-4-60-65-5"
       sodipodi:nodetypes="ccccccccccccc" /><path
       style="fill:#808080;fill-opacity:1;stroke:none;stroke-width:0.303653;stroke-linecap:butt;stroke-linejoin:miter;stroke-dasharray:none;stroke-opacity:1"
       d="m -806.14955,1827.3376 -5.01177,0.1842 0.0727,9.6514 6.68237,-0.1842 0.21789,3.1454 5.15704,-0.1842 -0.21789,-8.7458 h 9.02259 l -0.36319,-6.4444 -7.17718,0.119 v -6.6284 l -8.23723,-0.1192 c -0.0569,8.8544 0.003,0.075 -0.14526,9.2062 z"
       id="path7-1-4-1-3-3"
       sodipodi:nodetypes="ccccccccccccc" /><path
       style="fill:#808080;fill-opacity:1;stroke:none;stroke-width:0.303653;stroke-linecap:butt;stroke-linejoin:miter;stroke-dasharray:none;stroke-opacity:1"
       d="m -775.14088,1886.4199 -5.01177,0.1842 0.0727,9.6513 6.68236,-0.1843 0.21791,3.1454 5.15704,-0.1841 -0.21791,-8.7459 h 9.02259 l -0.36318,-6.4442 -7.17718,0.1189 v -6.6283 l -8.23722,-0.1192 c -0.0568,8.8542 0.003,0.074 -0.14525,9.2062 z"
       id="path7-1-4-01-4-4"
       sodipodi:nodetypes="ccccccccccccc" /><path
       style="fill:#808080;fill-opacity:1;stroke:none;stroke-width:0.303653;stroke-linecap:butt;stroke-linejoin:miter;stroke-dasharray:none;stroke-opacity:1"
       d="m -783.36396,1919.7825 -5.01178,0.1841 0.0727,9.6513 6.68238,-0.1844 0.2179,3.1455 5.15704,-0.1841 -0.2179,-8.7459 h 9.02259 l -0.36319,-6.4443 -7.17718,0.1191 v -6.6285 l -8.23722,-0.119 c -0.0568,8.8542 0.003,0.075 -0.14527,9.2062 z"
       id="path7-1-4-3-44-3"
       sodipodi:nodetypes="ccccccccccccc" /><path
       style="fill:#808080;fill-opacity:1;stroke:none;stroke-width:0.303653;stroke-linecap:butt;stroke-linejoin:miter;stroke-dasharray:none;stroke-opacity:1"
       d="m -806.14952,1945.502 -5.01179,0.1842 0.0727,9.6513 6.68237,-0.1843 0.2179,3.1454 5.15703,-0.1841 -0.21791,-8.7459 h 9.0226 l -0.36318,-6.4443 -7.17719,0.1189 v -6.6282 l -8.23722,-0.1192 c -0.0568,8.8543 0.003,0.075 -0.14525,9.2062 z"
       id="path7-1-4-7-2-2"
       sodipodi:nodetypes="ccccccccccccc" /><path
       style="fill:#808080;fill-opacity:1;stroke:none;stroke-width:0.303653;stroke-linecap:butt;stroke-linejoin:miter;stroke-dasharray:none;stroke-opacity:1"
       d="m -838.27772,1957.6865 -5.01177,0.1843 0.0727,9.6513 6.68237,-0.1842 0.2179,3.1454 5.15704,-0.184 -0.2179,-8.7461 h 9.02259 l -0.36318,-6.4443 -7.17718,0.1191 v -6.6285 l -8.23721,-0.1191 c -0.0568,8.8544 0.003,0.075 -0.14527,9.2061 z"
       id="path7-1-4-5-0-9-11"
       sodipodi:nodetypes="ccccccccccccc" /><path
       style="fill:#808080;fill-opacity:1;stroke:none;stroke-width:0.303653;stroke-linecap:butt;stroke-linejoin:miter;stroke-dasharray:none;stroke-opacity:1"
       d="m -872.38817,1953.5449 -5.01179,0.1842 0.0727,9.6512 6.68237,-0.1841 0.2179,3.1454 5.15703,-0.1841 -0.21791,-8.746 h 9.0226 l -0.36318,-6.4442 -7.17719,0.1188 v -6.6282 l -8.23722,-0.1193 c -0.0568,8.8543 0.003,0.075 -0.14525,9.2063 z"
       id="path7-1-4-60-8-2-32"
       sodipodi:nodetypes="ccccccccccccc" /><path
       style="fill:#808080;fill-opacity:1;stroke:none;stroke-width:0.303653;stroke-linecap:butt;stroke-linejoin:miter;stroke-dasharray:none;stroke-opacity:1"
       d="m -900.66674,1934.0255 -5.01179,0.1842 0.0727,9.6513 6.68237,-0.1842 0.21792,3.1455 5.15702,-0.1842 -0.2179,-8.746 h 9.02258 l -0.36316,-6.4442 -7.1772,0.1188 v -6.6282 l -8.23721,-0.1192 c -0.0568,8.8543 0.003,0.074 -0.14525,9.2062 z"
       id="path7-1-4-0-3-73-5"
       sodipodi:nodetypes="ccccccccccccc" /><path
       style="fill:#808080;fill-opacity:1;stroke:none;stroke-width:0.303653;stroke-linecap:butt;stroke-linejoin:miter;stroke-dasharray:none;stroke-opacity:1"
       d="m -916.63516,1903.6003 -5.01176,0.1843 0.0727,9.6512 6.68237,-0.1842 0.21791,3.1455 5.15703,-0.1841 -0.2179,-8.7458 h 9.02259 l -0.36318,-6.4445 -7.17718,0.119 v -6.6284 l -8.23722,-0.1192 c -0.0568,8.8546 0.003,0.075 -0.14527,9.2062 z"
       id="path7-1-4-01-0-1-3"
       sodipodi:nodetypes="ccccccccccccc" /><path
       style="fill:#808080;fill-opacity:1;stroke:none;stroke-width:0.303653;stroke-linecap:butt;stroke-linejoin:miter;stroke-dasharray:none;stroke-opacity:1"
       d="m -783.36395,1853.0574 -5.01179,0.1841 0.0727,9.6512 6.68238,-0.1841 0.21791,3.1454 5.15703,-0.1841 -0.21791,-8.7458 h 9.02259 l -0.36317,-6.4443 -7.1772,0.1189 v -6.6283 l -8.23721,-0.1193 c -0.0568,8.8544 0.003,0.075 -0.14525,9.2063 z"
       id="path7-1-4-3-7-57-51"
       sodipodi:nodetypes="ccccccccccccc" /><path
       style="fill:#808080;fill-opacity:1;stroke:none;stroke-width:0.303653;stroke-dasharray:none;stroke-opacity:1"
       d="m -908.10391,1867.2958 c -0.83646,-2.7188 1.88205,-5.0189 -0.41824,-6.6918 -2.30027,-1.673 -7.73727,-0.6274 -8.46917,1.9866 -0.73194,2.614 2.71848,5.1234 0.941,6.6917 -1.77748,1.5684 -4.60055,-1.0456 -5.43701,3.2414 -0.83646,4.2867 1.04558,6.2733 2.71851,6.6916 1.67291,0.418 2.09116,-1.2546 3.55497,-0.2092 1.46381,1.0458 -0.73191,2.0912 0.83646,2.9277 1.56838,0.8365 5.12334,0.1043 4.80967,-1.8819 -0.31368,-1.9867 -1.67294,-5.3328 -0.31368,-6.3782 1.35925,-1.0454 8.26009,1.5685 8.57376,-0.8364 0.31367,-2.4048 1.56836,-5.0188 -0.62735,-5.6462 -2.19572,-0.6274 -5.52778,1.9127 -6.16892,0.1042 z"
       id="path66-6-4-8-22"
       sodipodi:nodetypes="csssssssssssc" /></g></svg>
