<?xml version="1.0" encoding="UTF-8" standalone="no"?>
<!-- Created with Inkscape (http://www.inkscape.org/) -->

<svg
   width="189.13846mm"
   height="189.13844mm"
   viewBox="0 0 189.13846 189.13844"
   version="1.1"
   id="svg1"
   inkscape:version="1.4 (86a8ad7, 2024-10-11)"
   sodipodi:docname="magistrs.svg"
   xml:space="preserve"
   inkscape:export-batch-path="..\Desktop\Adeles draziņa\Formas"
   inkscape:export-batch-name="magistrs"
   xmlns:inkscape="http://www.inkscape.org/namespaces/inkscape"
   xmlns:sodipodi="http://sodipodi.sourceforge.net/DTD/sodipodi-0.dtd"
   xmlns:xlink="http://www.w3.org/1999/xlink"
   xmlns="http://www.w3.org/2000/svg"
   xmlns:svg="http://www.w3.org/2000/svg"><sodipodi:namedview
     id="namedview1"
     pagecolor="#d4d4d4"
     bordercolor="#eeeeee"
     borderopacity="1"
     inkscape:showpageshadow="false"
     inkscape:pageopacity="0"
     inkscape:pagecheckerboard="false"
     inkscape:deskcolor="#c7c7c7"
     inkscape:document-units="mm"
     inkscape:zoom="0.25669573"
     inkscape:cx="-2837.9904"
     inkscape:cy="5335.1102"
     inkscape:window-width="1920"
     inkscape:window-height="1009"
     inkscape:window-x="-8"
     inkscape:window-y="-8"
     inkscape:window-maximized="1"
     inkscape:current-layer="layer1"
     labelstyle="default"
     showborder="false"
     borderlayer="false"
     inkscape:clip-to-page="false"
     showgrid="false"><inkscape:page
       x="0"
       y="0"
       width="189.13846"
       height="189.13844"
       id="page5"
       margin="0"
       bleed="0" /></sodipodi:namedview><defs
     id="defs1"><color-profile
       name="Adobe-RGB-1998"
       xlink:href="../../../../../WINDOWS/system32/spool/drivers/color/AdobeRGB1998.icc"
       id="color-profile1" /><color-profile
       name="Adobe-RGB-1998"
       xlink:href="file:///WINDOWS/system32/spool/drivers/color/AdobeRGB1998.icc"
       id="color-profile2" /></defs><g
     inkscape:label="Slānis 1"
     inkscape:groupmode="layer"
     id="layer1"
     transform="translate(1140.1467,-1792.3642)"><rect
       style="fill:#ffffff;fill-opacity:1;stroke:none;stroke-width:0.264583;stroke-opacity:1"
       id="rect39-4-6-5-8-1-4"
       width="189.13849"
       height="189.13849"
       x="-1140.1467"
       y="1792.3643"
       inkscape:export-filename="..\Documents\adeles-magistrs\meklesana\fixation.svg"
       inkscape:export-xdpi="96"
       inkscape:export-ydpi="96" /><path
       d="m -1046.5976,1880.5742 v 5.3388 h -5.339 v 2.0402 h 5.339 v 5.3391 h 2.0402 v -5.3391 h 5.3392 v -2.0402 h -5.3392 v -5.3388 z"
       style="fill:#808080;stroke-width:0.126062"
       id="path1-8-32-2-4-1-3-5-8-8-4"
       inkscape:export-filename="..\Documents\Dev\eksperimenta-svg-faili\fixation.png"
       inkscape:export-xdpi="96"
       inkscape:export-ydpi="96" /><path
       style="fill:#808080;fill-opacity:1;stroke:none;stroke-width:0.303653;stroke-linecap:butt;stroke-linejoin:miter;stroke-dasharray:none;stroke-opacity:1"
       d="m -1120.7372,1902.3187 -5.0118,0.1842 0.073,9.6511 6.6824,-0.184 0.2179,3.1455 5.157,-0.1842 -0.2179,-8.746 h 9.0226 l -0.3631,-6.4442 -7.1772,0.1189 v -6.6283 l -8.2372,-0.1192 c -0.057,8.8544 0,0.075 -0.1453,9.2062 z"
       id="path7-1-4-5-2-0"
       sodipodi:nodetypes="ccccccccccccc" /><path
       style="fill:#808080;fill-opacity:1;stroke:none;stroke-width:0.303653;stroke-linecap:butt;stroke-linejoin:miter;stroke-dasharray:none;stroke-opacity:1"
       d="m -1120.7372,1867.9575 -5.0118,0.1842 0.073,9.6513 6.6824,-0.1841 0.2179,3.1455 5.157,-0.1842 -0.2179,-8.7461 h 9.0226 l -0.3632,-6.4443 -7.1771,0.1191 v -6.6285 l -8.2373,-0.119 c -0.057,8.8543 0,0.074 -0.1452,9.2061 z"
       id="path7-1-4-5-2-4-70"
       sodipodi:nodetypes="ccccccccccccc" /><path
       style="fill:#808080;fill-opacity:1;stroke:none;stroke-width:0.303653;stroke-linecap:butt;stroke-linejoin:miter;stroke-dasharray:none;stroke-opacity:1"
       d="m -1104.7688,1837.5325 -5.0118,0.1842 0.073,9.6514 6.6824,-0.1842 0.2179,3.1454 5.157,-0.1842 -0.2179,-8.746 h 9.0226 l -0.3632,-6.4442 -7.1771,0.1191 v -6.6285 l -8.2373,-0.1192 c -0.057,8.8543 0,0.075 -0.1452,9.2062 z"
       id="path7-1-4-60-65-3"
       sodipodi:nodetypes="ccccccccccccc" /><path
       style="fill:#808080;fill-opacity:1;stroke:none;stroke-width:0.303653;stroke-linecap:butt;stroke-linejoin:miter;stroke-dasharray:none;stroke-opacity:1"
       d="m -1076.4902,1818.0132 -5.0118,0.1842 0.073,9.6514 6.6824,-0.1842 0.2178,3.1454 5.1571,-0.1842 -0.2179,-8.7458 h 9.0226 l -0.3632,-6.4444 -7.1772,0.119 v -6.6284 l -8.2372,-0.1192 c -0.057,8.8544 0,0.075 -0.1453,9.2062 z"
       id="path7-1-4-1-3-4"
       sodipodi:nodetypes="ccccccccccccc" /><path
       style="fill:#808080;fill-opacity:1;stroke:none;stroke-width:0.303653;stroke-linecap:butt;stroke-linejoin:miter;stroke-dasharray:none;stroke-opacity:1"
       d="m -1042.3798,1813.8715 -5.0117,0.1842 0.073,9.6513 6.6823,-0.1843 0.2179,3.1454 5.1571,-0.1841 -0.2179,-8.7459 h 9.0226 l -0.3632,-6.4442 -7.1772,0.1189 v -6.6283 l -8.2372,-0.1192 c -0.057,8.8542 0,0.074 -0.1453,9.2062 z"
       id="path7-1-4-01-4-0"
       sodipodi:nodetypes="ccccccccccccc" /><path
       style="fill:#808080;fill-opacity:1;stroke:none;stroke-width:0.303653;stroke-linecap:butt;stroke-linejoin:miter;stroke-dasharray:none;stroke-opacity:1"
       d="m -1076.4902,1952.2633 -5.0118,0.1841 0.073,9.6513 6.6824,-0.1844 0.2179,3.1455 5.157,-0.1841 -0.2179,-8.7459 h 9.0226 l -0.3632,-6.4443 -7.1772,0.1191 v -6.6285 l -8.2372,-0.119 c -0.057,8.8542 0,0.075 -0.1453,9.2062 z"
       id="path7-1-4-3-44-0"
       sodipodi:nodetypes="ccccccccccccc" /><path
       style="fill:#808080;fill-opacity:1;stroke:none;stroke-width:0.303653;stroke-linecap:butt;stroke-linejoin:miter;stroke-dasharray:none;stroke-opacity:1"
       d="m -979.24291,1885.1383 -5.01179,0.1842 0.0727,9.6513 6.68237,-0.1843 0.2179,3.1454 5.15703,-0.1841 -0.21791,-8.7459 h 9.0226 l -0.36318,-6.4443 -7.17719,0.1189 v -6.6282 l -8.23722,-0.1192 c -0.0568,8.8543 0.003,0.075 -0.14525,9.2062 z"
       id="path7-1-4-7-2-5"
       sodipodi:nodetypes="ccccccccccccc" /><path
       style="fill:#808080;fill-opacity:1;stroke:none;stroke-width:0.303653;stroke-linecap:butt;stroke-linejoin:miter;stroke-dasharray:none;stroke-opacity:1"
       d="m -987.46602,1918.5007 -5.01177,0.1843 0.0727,9.6513 6.68237,-0.1842 0.2179,3.1454 5.15704,-0.184 -0.2179,-8.7461 h 9.02259 l -0.36318,-6.4443 -7.17718,0.1191 v -6.6285 l -8.23721,-0.1191 c -0.0568,8.8544 0.003,0.075 -0.14527,9.2061 z"
       id="path7-1-4-5-0-9-3"
       sodipodi:nodetypes="ccccccccccccc" /><path
       style="fill:#808080;fill-opacity:1;stroke:none;stroke-width:0.303653;stroke-linecap:butt;stroke-linejoin:miter;stroke-dasharray:none;stroke-opacity:1"
       d="m -1010.2516,1944.2204 -5.0118,0.1842 0.073,9.6512 6.6824,-0.1841 0.2179,3.1454 5.157,-0.1841 -0.2179,-8.746 h 9.02262 l -0.36318,-6.4442 -7.17714,0.1188 v -6.6282 l -8.2373,-0.1193 c -0.057,8.8543 0,0.075 -0.1452,9.2063 z"
       id="path7-1-4-60-8-2-1"
       sodipodi:nodetypes="ccccccccccccc" /><path
       style="fill:#808080;fill-opacity:1;stroke:none;stroke-width:0.303653;stroke-linecap:butt;stroke-linejoin:miter;stroke-dasharray:none;stroke-opacity:1"
       d="m -1042.3797,1956.4049 -5.0118,0.1842 0.073,9.6513 6.6823,-0.1842 0.218,3.1455 5.157,-0.1842 -0.2179,-8.746 h 9.0226 l -0.3632,-6.4442 -7.1772,0.1188 v -6.6282 l -8.2372,-0.1192 c -0.057,8.8543 0,0.074 -0.1453,9.2062 z"
       id="path7-1-4-0-3-73-06"
       sodipodi:nodetypes="ccccccccccccc" /><path
       style="fill:#808080;fill-opacity:1;stroke:none;stroke-width:0.303653;stroke-linecap:butt;stroke-linejoin:miter;stroke-dasharray:none;stroke-opacity:1"
       d="m -1010.2516,1826.056 -5.0118,0.1843 0.073,9.6512 6.6824,-0.1842 0.2179,3.1455 5.157,-0.1841 -0.2179,-8.7458 h 9.02263 l -0.36318,-6.4445 -7.17715,0.119 v -6.6284 l -8.2373,-0.1192 c -0.057,8.8546 0,0.075 -0.1452,9.2062 z"
       id="path7-1-4-01-0-1-7"
       sodipodi:nodetypes="ccccccccccccc" /><path
       style="fill:#808080;fill-opacity:1;stroke:none;stroke-width:0.303653;stroke-linecap:butt;stroke-linejoin:miter;stroke-dasharray:none;stroke-opacity:1"
       d="m -987.466,1851.7758 -5.01179,0.1841 0.0727,9.6512 6.68238,-0.1841 0.21791,3.1454 5.15703,-0.1841 -0.21791,-8.7458 h 9.02259 l -0.36317,-6.4443 -7.1772,0.1189 v -6.6283 l -8.23721,-0.1193 c -0.0568,8.8544 0.003,0.075 -0.14525,9.2063 z"
       id="path7-1-4-3-7-57-50"
       sodipodi:nodetypes="ccccccccccccc" /><path
       style="fill:#808080;fill-opacity:1;stroke:none;stroke-width:0.303653;stroke-dasharray:none;stroke-opacity:1"
       d="m -1096.2376,1930.8004 c -0.8364,-2.7188 1.8821,-5.0189 -0.4182,-6.6918 -2.3003,-1.673 -7.7373,-0.6274 -8.4692,1.9866 -0.7319,2.614 2.7185,5.1234 0.941,6.6917 -1.7775,1.5684 -4.6005,-1.0456 -5.437,3.2414 -0.8365,4.2867 1.0456,6.2733 2.7185,6.6916 1.6729,0.418 2.0912,-1.2546 3.555,-0.2092 1.4638,1.0458 -0.7319,2.0912 0.8364,2.9277 1.5684,0.8365 5.1234,0.1043 4.8097,-1.8819 -0.3137,-1.9867 -1.6729,-5.3328 -0.3137,-6.3782 1.3593,-1.0454 8.2601,1.5685 8.5738,-0.8364 0.3137,-2.4048 1.5684,-5.0188 -0.6274,-5.6462 -2.1957,-0.6274 -5.5277,1.9127 -6.1689,0.1042 z"
       id="path66-6-4-8-0"
       sodipodi:nodetypes="csssssssssssc" /></g></svg>
