<?xml version="1.0" encoding="UTF-8" standalone="no"?>
<!-- Created with Inkscape (http://www.inkscape.org/) -->

<svg
   width="189.13849mm"
   height="189.13844mm"
   viewBox="0 0 189.13849 189.13844"
   version="1.1"
   id="svg1"
   inkscape:version="1.4 (86a8ad7, 2024-10-11)"
   sodipodi:docname="magistrs.svg"
   xml:space="preserve"
   inkscape:export-batch-path="..\Desktop\Adeles draziņa\Formas"
   inkscape:export-batch-name="magistrs"
   xmlns:inkscape="http://www.inkscape.org/namespaces/inkscape"
   xmlns:sodipodi="http://sodipodi.sourceforge.net/DTD/sodipodi-0.dtd"
   xmlns:xlink="http://www.w3.org/1999/xlink"
   xmlns="http://www.w3.org/2000/svg"
   xmlns:svg="http://www.w3.org/2000/svg"><sodipodi:namedview
     id="namedview1"
     pagecolor="#d4d4d4"
     bordercolor="#eeeeee"
     borderopacity="1"
     inkscape:showpageshadow="false"
     inkscape:pageopacity="0"
     inkscape:pagecheckerboard="false"
     inkscape:deskcolor="#c7c7c7"
     inkscape:document-units="mm"
     inkscape:zoom="0.25669573"
     inkscape:cx="-2837.9904"
     inkscape:cy="5335.1102"
     inkscape:window-width="1920"
     inkscape:window-height="1009"
     inkscape:window-x="-8"
     inkscape:window-y="-8"
     inkscape:window-maximized="1"
     inkscape:current-layer="layer1"
     labelstyle="default"
     showborder="false"
     borderlayer="false"
     inkscape:clip-to-page="false"
     showgrid="false"><inkscape:page
       x="0"
       y="0"
       width="189.13849"
       height="189.13844"
       id="page5"
       margin="0"
       bleed="0" /></sodipodi:namedview><defs
     id="defs1"><color-profile
       name="Adobe-RGB-1998"
       xlink:href="../../../../../WINDOWS/system32/spool/drivers/color/AdobeRGB1998.icc"
       id="color-profile1" /><color-profile
       name="Adobe-RGB-1998"
       xlink:href="file:///WINDOWS/system32/spool/drivers/color/AdobeRGB1998.icc"
       id="color-profile2" /></defs><g
     inkscape:label="Slānis 1"
     inkscape:groupmode="layer"
     id="layer1"
     transform="translate(515.21441,-1372.7863)"><rect
       style="fill:#ffffff;fill-opacity:1;stroke:none;stroke-width:0.264583;stroke-opacity:1"
       id="rect39-4-6-5-8-5"
       width="189.13849"
       height="189.13849"
       x="-515.21442"
       y="1372.7863"
       inkscape:export-filename="..\Documents\adeles-magistrs\meklesana\fixation.svg"
       inkscape:export-xdpi="96"
       inkscape:export-ydpi="96" /><path
       d="m -421.66528,1460.9963 v 5.3389 h -5.339 v 2.0402 h 5.339 v 5.3391 h 2.0402 v -5.3391 h 5.3392 v -2.0402 h -5.3392 v -5.3389 z"
       style="fill:#808080;stroke-width:0.126062"
       id="path1-8-32-2-4-1-3-5-8-4"
       inkscape:export-filename="..\Documents\Dev\eksperimenta-svg-faili\fixation.png"
       inkscape:export-xdpi="96"
       inkscape:export-ydpi="96" /><path
       fill="#ff0066"
       d="m -375.79946,1400.936 c 0.9035,1.7678 1.0606,3.5356 1.6696,5.0284 0.5893,1.5124 1.6106,2.7498 1.6695,4.0266 0.079,1.2768 -0.8053,2.5731 -2.0036,3.1428 -1.1981,0.5695 -2.7105,0.4321 -4.3605,1.8267 -1.6302,1.3749 -3.398,4.282 -5.1266,4.7926 -1.7284,0.5108 -3.3784,-1.3749 -3.3193,-3.5355 0.059,-2.1411 1.8463,-4.557 2.0819,-6.4229 0.2358,-1.866 -1.0803,-3.1821 -1.6498,-5.0874 -0.5893,-1.9053 -0.4125,-4.3802 0.8445,-5.9908 1.2571,-1.6302 3.5945,-2.3571 5.598,-1.8463 2.0035,0.5106 3.673,2.298 4.5963,4.0658 z"
       id="path1-7-2-3-9-8"
       style="fill:#808080;fill-opacity:1;stroke:none;stroke-width:0.296821;stroke-dasharray:none;stroke-opacity:1" /><path
       style="fill:#808080;fill-opacity:1;stroke:none;stroke-width:0.296821;stroke-dasharray:none;stroke-opacity:1"
       d="m -343.01333,1466.1904 c -0.065,-0.1313 -1.7722,-6.1041 -1.7722,-6.1041 l -6.7276,-4.3319 -5.054,6.4979 3.4131,6.1697 -2.527,10.5345 8.4013,-5.8744 6.1369,-2.0675 z"
       id="path39-4-3-89-5-6" /><path
       style="fill:#808080;fill-opacity:1;stroke:none;stroke-width:0.296821;stroke-dasharray:none;stroke-opacity:1"
       d="m -351.23652,1499.5529 c -0.067,-0.1312 -1.7723,-6.1041 -1.7723,-6.1041 l -6.7275,-4.3318 -5.0539,6.4978 3.4129,6.1698 -2.5269,10.5344 8.4014,-5.8744 6.1368,-2.0674 z"
       id="path39-4-3-1-3-12" /><path
       style="fill:#808080;fill-opacity:1;stroke:none;stroke-width:0.296821;stroke-dasharray:none;stroke-opacity:1"
       d="m -374.02216,1525.2725 c -0.065,-0.1312 -1.7722,-6.104 -1.7722,-6.104 l -6.7275,-4.3319 -5.054,6.4978 3.413,6.1699 -2.5269,10.5344 8.4013,-5.8744 6.1369,-2.0674 z"
       id="path39-4-3-12-2-4" /><path
       style="fill:#808080;fill-opacity:1;stroke:none;stroke-width:0.296821;stroke-dasharray:none;stroke-opacity:1"
       d="m -406.15022,1537.457 c -0.065,-0.1312 -1.7722,-6.104 -1.7722,-6.104 l -6.7276,-4.3319 -5.0539,6.4978 3.413,6.1699 -2.5269,10.5344 8.4013,-5.8744 6.1368,-2.0674 z"
       id="path39-4-3-86-5-2" /><path
       style="fill:#808080;fill-opacity:1;stroke:none;stroke-width:0.296821;stroke-dasharray:none;stroke-opacity:1"
       d="m -440.26083,1533.3154 c -0.065,-0.1313 -1.7721,-6.104 -1.7721,-6.104 l -6.7276,-4.332 -5.054,6.4979 3.413,6.1698 -2.5269,10.5344 8.4013,-5.8744 6.137,-2.0675 z"
       id="path39-4-3-3-2-5" /><path
       style="fill:#808080;fill-opacity:1;stroke:none;stroke-width:0.296821;stroke-dasharray:none;stroke-opacity:1"
       d="m -468.53929,1513.7961 c -0.067,-0.1313 -1.7722,-6.1041 -1.7722,-6.1041 l -6.7275,-4.3319 -5.0541,6.4978 3.4131,6.1698 -2.5269,10.5345 8.4012,-5.8744 6.137,-2.0675 z"
       id="path39-4-3-6-5-8" /><path
       style="fill:#808080;fill-opacity:1;stroke:none;stroke-width:0.296821;stroke-dasharray:none;stroke-opacity:1"
       d="m -484.50767,1483.3709 c -0.065,-0.1313 -1.7722,-6.104 -1.7722,-6.104 l -6.7276,-4.3319 -5.0539,6.4978 3.413,6.1699 -2.527,10.5344 8.4014,-5.8744 6.1368,-2.0675 z"
       id="path39-4-3-2-8-6" /><path
       style="fill:#808080;fill-opacity:1;stroke:none;stroke-width:0.296821;stroke-dasharray:none;stroke-opacity:1"
       d="m -484.50774,1449.0098 c -0.065,-0.1313 -1.7721,-6.1041 -1.7721,-6.1041 l -6.7276,-4.3319 -5.054,6.4978 3.4131,6.1698 -2.527,10.5346 8.4013,-5.8744 6.137,-2.0676 z"
       id="path39-4-3-67-26" /><path
       style="fill:#808080;fill-opacity:1;stroke:none;stroke-width:0.296821;stroke-dasharray:none;stroke-opacity:1"
       d="m -351.23652,1432.8278 c -0.065,-0.1313 -1.7722,-6.1041 -1.7722,-6.1041 l -6.7275,-4.3319 -5.0541,6.4979 3.4131,6.1697 -2.52691,10.5346 8.40121,-5.8745 6.137,-2.0675 z"
       id="path39-4-3-67-2-5" /><path
       style="fill:#808080;fill-opacity:1;stroke:none;stroke-width:0.296821;stroke-dasharray:none;stroke-opacity:1"
       d="m -468.53939,1418.5846 c -0.067,-0.1313 -1.7721,-6.104 -1.7721,-6.104 l -6.7277,-4.3319 -5.0539,6.4978 3.4131,6.1698 -2.527,10.5345 8.4014,-5.8745 6.1369,-2.0675 z"
       id="path39-4-3-8-7-3" /><path
       style="fill:#808080;fill-opacity:1;stroke:none;stroke-width:0.296821;stroke-dasharray:none;stroke-opacity:1"
       d="m -440.26069,1399.0654 c -0.065,-0.1313 -1.7722,-6.1041 -1.7722,-6.1041 l -6.7275,-4.3319 -5.0541,6.4979 3.4131,6.1698 -2.5269,10.5345 8.4012,-5.8744 6.137,-2.0675 z"
       id="path39-4-3-0-2-92" /><path
       style="fill:#808080;fill-opacity:1;stroke:none;stroke-width:0.296821;stroke-dasharray:none;stroke-opacity:1"
       d="m -406.15032,1394.9237 c -0.067,-0.1313 -1.7722,-6.1041 -1.7722,-6.1041 l -6.7276,-4.3319 -5.0539,6.4979 3.413,6.1697 -2.5269,10.5345 8.4013,-5.8744 6.137,-2.0675 z"
       id="path39-4-3-9-2-4" /></g></svg>
