<?xml version="1.0" encoding="UTF-8" standalone="no"?>
<!-- Created with Inkscape (http://www.inkscape.org/) -->

<svg
   width="22.46419mm"
   height="21.758089mm"
   viewBox="0 0 22.46419 21.758089"
   version="1.1"
   id="svg1"
   xml:space="preserve"
   xmlns:xlink="http://www.w3.org/1999/xlink"
   xmlns="http://www.w3.org/2000/svg"
   xmlns:svg="http://www.w3.org/2000/svg"><defs
     id="defs1"><color-profile
       name="Adobe-RGB-1998"
       xlink:href="../../../../../../WINDOWS/system32/spool/drivers/color/AdobeRGB1998.icc"
       id="color-profile1" /></defs><g
     id="layer1"
     transform="translate(317.66113,-137.48293)"><path
       style="fill:#808080;fill-opacity:1;stroke:none;stroke-width:0.264583;stroke-dasharray:none;stroke-opacity:1"
       d="m -306.09802,139.91031 -8.12065,5.34021 7.63518,-3.79553 -10.19496,6.66425 8.38547,3.61898 -6.57597,-0.88267 0.83854,0.70614 -1.89776,0.61787 1.01508,0.30895 -2.64804,1.41228 c 0,0 3.39832,-0.17653 3.57486,-0.22067 0.17653,-0.0441 -0.52961,2.03016 -0.52961,2.03016 l 8.95921,-3.13351 -4.23687,-3.79553 3.75139,-3.08938 1.9419,13.54916 6.4877,-4.98716 -6.09049,-1.27989 -1.23576,-7.32624 3.44245,-1.80949 -0.44133,1.36816 2.07429,-2.03017 0.57374,1.45641 1.94191,-3.57485 0.0441,2.16257 2.2067,-4.28101 -4.76647,-1.45642 2.55977,2.42738 -5.25195,-0.92682 2.78044,2.64806 -3.88379,-0.22068 2.51564,1.32401 -4.36927,0.0883 z"
       id="path57-2-2" /></g></svg>
