<?xml version="1.0" encoding="UTF-8" standalone="no"?>
<!-- Created with Inkscape (http://www.inkscape.org/) -->

<svg
   width="17.01601mm"
   height="8.5518999mm"
   viewBox="0 0 17.01601 8.5518999"
   version="1.1"
   id="svg1"
   xml:space="preserve"
   xmlns:xlink="http://www.w3.org/1999/xlink"
   xmlns="http://www.w3.org/2000/svg"
   xmlns:svg="http://www.w3.org/2000/svg"><defs
     id="defs1"><color-profile
       name="Adobe-RGB-1998"
       xlink:href="../../../../../../WINDOWS/system32/spool/drivers/color/AdobeRGB1998.icc"
       id="color-profile1" /></defs><g
     id="layer1"
     transform="translate(302.50832,-391.22871)"><path
       d="m -292.0702,391.22871 -5.89732,0.4811 5.97277,1.0381 -4.76302,0.4305 4.61212,1.0129 -1.03921,0.124 -1.76269,-0.4346 -7.33392,0.1266 4.61213,1.4433 -4.76302,0.2532 5.4436,1.0382 -5.51956,0.4305 6.04872,1.1141 -5.74642,0.5824 6.27559,0.9116 5.89731,-0.4811 -5.97276,-1.0382 4.76302,-0.4305 -4.61212,-1.0128 1.03921,-0.124 1.76268,0.4346 7.33392,-0.1266 -4.61212,-1.4434 4.76353,-0.2532 -5.44411,-1.0382 5.51956,-0.4304 -6.04873,-1.1142 5.74642,-0.5824 z m -1.68775,3.8979 3.04891,0.432 -3.53312,0.324 -3.04891,-0.432 z"
       style="fill:#808080;stroke-width:0.25414"
       id="path93-8" /></g></svg>
