<?xml version="1.0" encoding="UTF-8" standalone="no"?>
<!-- Created with Inkscape (http://www.inkscape.org/) -->

<svg
   width="35.90572mm"
   height="18.681435mm"
   viewBox="0 0 35.90572 18.681435"
   version="1.1"
   id="svg1"
   xml:space="preserve"
   xmlns:xlink="http://www.w3.org/1999/xlink"
   xmlns="http://www.w3.org/2000/svg"
   xmlns:svg="http://www.w3.org/2000/svg"><defs
     id="defs1"><color-profile
       name="Adobe-RGB-1998"
       xlink:href="../../../../../../WINDOWS/system32/spool/drivers/color/AdobeRGB1998.icc"
       id="color-profile1" /></defs><g
     id="layer1"
     transform="translate(318.1637,-314.48091)"><path
       style="fill:#808080;stroke-width:0.129814"
       d="m -316.58328,325.79631 0.0632,-4.2986 1.45393,3.7297 0.25285,-8.3443 0.82179,7.9018 1.13786,-6.9536 c 0,0 0.82179,9.5454 0.88499,8.85 0.0632,-0.6954 0.63216,-5.6893 0.63216,-5.6893 l 1.70678,3.54 0.56892,-3.7297 c 0,0 0.75858,4.9308 0.75858,4.5515 v -3.7929 c 0,0 0.69535,3.9193 0.69535,3.4768 0,-0.4425 0.18964,-3.7929 0.18964,-3.7929 0,0 0.37928,3.9825 0.56894,3.54 0.18964,-0.4424 1.20106,-5.1835 1.20106,-5.1835 l 0.50573,4.2985 c 0,0 0.31607,-5.9421 0.31607,-5.626 0,0.316 0.18964,4.2353 0.18964,4.2353 l 0.50571,-3.1607 0.3793,2.2125 0.25285,-3.0975 0.12643,3.9825 0.50571,-2.9078 0.18964,3.1607 0.3793,-2.339 c 0,0 -0.0633,2.8447 -0.0633,2.9711 0,0.1264 0.56893,-3.2239 0.56893,-3.2239 0,0 0.12644,3.8561 0.12644,3.9825 0,0.1264 0.25286,-6.4479 0.25286,-6.4479 l 0.12642,6.9536 1.13787,-3.6664 0.25285,5.7525 c 0,0 0.37928,-6.195 0.37928,-5.1836 0,1.0114 0.12643,3.9193 0.12643,3.9193 l 0.82179,-4.9939 c 0,0 0.18965,4.425 0.18965,4.741 0,0.3161 1.70678,-3.4767 1.70678,-3.4767 v 4.9939 c 0,0.3793 0.94822,-5.1836 0.94822,-5.1836 0,0 -0.12643,4.9307 -0.12643,4.8675 0,-0.063 0.4425,-3.9193 0.4425,-3.9193 0,0 0.18965,2.655 0.18965,2.9079 0,0.2528 0.63213,-2.5286 0.63213,-1.9597 0,0.569 0.0632,3.2872 0.0632,3.2872 0,0 0.31607,-5.7525 0.25285,-5.1836 -0.0632,0.5689 0.25288,5.31 0.25288,5.5629 0,0.2528 0.56893,-5.8157 0.56893,-5.31 0,0.5057 0.37927,5.2468 0.12641,5.6893 -0.25284,0.4425 1.45394,-4.7411 1.45394,-4.7411 0,0 0.44249,4.425 0.44249,4.6779 0,0.2528 0.8218,-5.0572 0.8218,-5.0572 l -0.3793,-7.8386 c 0,0 0.94822,12.074 1.01144,11.6315 0.0632,-0.4425 0.50571,-6.3847 0.50571,-6.3847 l 1.89644,6.4479 -1.26429,2.3389 1.95964,-5.2468 c 0,0 -0.0632,5.9422 -0.0632,5.3732 0,-0.5689 0.88501,-5.31 0.88501,-5.31 0,0 0.5057,5.5629 0.56892,5.1836 0.0632,-0.3793 1.89642,-0.3161 1.89642,-0.3161 l -2.08606,1.9597 3.41357,0.2528 -7.77537,-0.1264 5.37322,1.8332 -8.53393,-1.1378 1.95964,-3.7929 -5.49964,3.1607 1.63029,-2.5805 c 0,0 -3.46351,4.2241 -3.46351,3.908 0,-0.3161 -0.0632,-3.2871 -0.0632,-3.2871 0,0 -2.02285,4.1721 -2.14928,3.6664 -0.12642,-0.5057 -0.50572,-4.1089 -0.50572,-4.1089 l -1.51714,-1.2011 c 0,0 -3.91929,3.3504 -3.9825,2.9711 -0.0632,-0.3793 0.885,-4.3618 0.885,-4.3618 0,0 -2.84465,9.3557 -2.78144,7.5857 0.0632,-1.77 0.12644,-3.9193 0.12644,-3.9193 0,0 -3.72966,4.1089 -3.72966,3.4136 0,-0.6954 0.31607,-3.7297 0.31607,-3.7297 l -3.60322,2.4654 2.08608,-3.6664 -0.18964,-2.2125 -1.89644,2.8446 0.31608,-2.0861 -2.90785,2.7182 z"
       id="path32-9" /></g></svg>
