<?xml version="1.0" encoding="UTF-8" standalone="no"?>
<!-- Created with Inkscape (http://www.inkscape.org/) -->

<svg
   width="26.742661mm"
   height="26.7778mm"
   viewBox="0 0 26.742661 26.7778"
   version="1.1"
   id="svg1"
   xml:space="preserve"
   xmlns:xlink="http://www.w3.org/1999/xlink"
   xmlns="http://www.w3.org/2000/svg"
   xmlns:svg="http://www.w3.org/2000/svg"><defs
     id="defs1"><color-profile
       name="Adobe-RGB-1998"
       xlink:href="../../../../../../WINDOWS/system32/spool/drivers/color/AdobeRGB1998.icc"
       id="color-profile1" /></defs><g
     id="layer1"
     transform="translate(309.36857,-285.75801)"><path
       d="m -296.12842,285.75801 -0.0656,2.6787 -0.006,0.2753 -5.74911,3.8436 -0.22598,-0.3576 -0.60561,-0.9592 -0.0519,1.3785 -0.0203,0.5436 -0.16965,-0.4223 -1.13222,-2.8167 0.20565,3.408 0.0477,0.7919 -0.29063,-0.6369 -0.50495,-1.1072 0.14299,1.3378 c -1.60387,1.0239 -3.20838,2.0479 -4.81454,3.0717 l 1.76016,7.51 -1.27687,0.4786 1.41553,0.1123 0.22897,0.018 0.97324,0.077 -0.77125,0.327 -0.30198,0.128 -1.3782,0.5839 1.52219,0.031 0.53462,0.011 0.0206,4e-4 -0.0137,0.014 -0.4343,0.4343 -0.96457,0.9645 1.07423,-0.4979 1.13689,4.8512 15.51284,0.7053 2.37944,-6.8087 2.87339,-2.1971 -2.24712,0.4052 1.22488,-3.5043 -2.58542,3.6433 -0.23498,-3.6433 -1.88048,4.4659 -1.17522,-4.5832 -1.05756,5.2881 -1.17522,-4.9358 -1.4102,4.2309 -3.76064,-8.1089 4.8182,1.7629 -2.58541,-3.7607 5.99342,2.7028 -2.58541,-4.5833 7.8739,4.9359 -3.32567,-4.6162 0.37362,-0.1697 3.24069,2.1605 -1.32954,-2.8254 4.27959,-0.374 -4.69488,-1.0385 -3.15603,0.4612 -0.29697,-0.4119 1.55985,-0.7073 -2.04381,0.035 -1.33486,0.023 0.72859,-0.8649 0.6816,-0.8096 -0.98424,0.3896 -1.57184,-2.1818 c -0.38278,0.2346 -0.75511,0.4691 -1.13524,0.7036 l -0.2053,-0.7579 -0.049,0.9156 -0.0596,1.1132 -0.27231,-0.9076 z"
       style="fill:#808080;stroke-width:0.208363"
       id="path26-8" /></g></svg>
