<?xml version="1.0" encoding="UTF-8" standalone="no"?>
<!-- Created with Inkscape (http://www.inkscape.org/) -->

<svg
   width="13.207279mm"
   height="20.616541mm"
   viewBox="0 0 13.207279 20.616541"
   version="1.1"
   id="svg1"
   xml:space="preserve"
   xmlns:xlink="http://www.w3.org/1999/xlink"
   xmlns="http://www.w3.org/2000/svg"
   xmlns:svg="http://www.w3.org/2000/svg"><defs
     id="defs1"><color-profile
       name="Adobe-RGB-1998"
       xlink:href="../../../../../../WINDOWS/system32/spool/drivers/color/AdobeRGB1998.icc"
       id="color-profile1" /></defs><g
     id="layer1"
     transform="translate(248.32662,60.221897)"><path
       fill="#ff0066"
       d="m -238.10015,-56.453957 c 0.8054,1.5758 0.94548,3.15158 1.48824,4.48224 0.52526,1.34817 1.43572,2.45123 1.48825,3.58929 0.07,1.13807 -0.71786,2.29365 -1.7859,2.8014 -1.06803,0.50775 -2.4162,0.38519 -3.88694,1.62831 -1.45322,1.22562 -3.029,3.81691 -4.56978,4.27213 -1.54076,0.45523 -3.01149,-1.2256 -2.95897,-3.15157 0.0525,-1.90845 1.64582,-4.06202 1.85593,-5.72536 0.2101,-1.66332 -0.96299,-2.83641 -1.47073,-4.53476 -0.52527,-1.69834 -0.36769,-3.90444 0.75287,-5.34016 1.12056,-1.45323 3.20409,-2.10106 4.98999,-1.64582 1.78589,0.45523 3.27413,2.04852 4.09704,3.6243 z"
       id="path1-7-2-2"
       style="fill:#808080;fill-opacity:1;stroke:none;stroke-width:0.264583;stroke-dasharray:none;stroke-opacity:1" /></g></svg>
