<?xml version="1.0" encoding="UTF-8" standalone="no"?>
<!-- Created with Inkscape (http://www.inkscape.org/) -->

<svg
   width="33.664352mm"
   height="14.513515mm"
   viewBox="0 0 33.664352 14.513515"
   version="1.1"
   id="svg1"
   xml:space="preserve"
   xmlns:xlink="http://www.w3.org/1999/xlink"
   xmlns="http://www.w3.org/2000/svg"
   xmlns:svg="http://www.w3.org/2000/svg"><defs
     id="defs1"><color-profile
       name="Adobe-RGB-1998"
       xlink:href="../../../../../../WINDOWS/system32/spool/drivers/color/AdobeRGB1998.icc"
       id="color-profile1" /></defs><g
     id="layer1"
     transform="translate(239.71145,-316.28322)"><path
       style="fill:#808080;stroke-width:0.129814"
       d="m -348.48851,760.07711 c 0.009,-0.64477 0.52639,0.13885 1.15455,1.75021 0.17483,0.44848 0.35902,-0.58935 0.41141,-2.31803 0.0211,-0.69473 0.0421,-1.38946 0.0632,-2.08419 0.0524,-1.72868 0.23987,-1.73556 0.41877,-0.0154 l 0.17393,1.67241 c 0.1789,1.7202 0.55034,1.73108 0.82963,0.0243 0.0421,-0.25761 0.0843,-0.51522 0.12646,-0.77283 0.27929,-1.70677 0.63369,-1.69421 0.78155,0.0289 0.0761,0.88626 0.15343,1.77246 0.24051,2.65718 0.16933,1.72042 0.51239,1.71555 0.7052,-0.003 0.1619,-1.44309 0.90448,-1.34973 1.65558,0.20813 0.19153,0.39726 0.55821,-0.66671 0.819,-2.37641 0.0534,-0.35015 0.29531,0.75412 0.58198,2.45964 0.13579,0.80785 0.27331,0.0558 0.27331,-1.67366 0,-0.36529 0.2006,0.7286 0.58375,2.41494 0.0547,0.24052 0.13475,-0.96832 0.26155,-2.69309 0.0215,-0.29306 -0.058,0.93106 0.49878,2.56498 0.0529,0.15517 0.4796,-1.07755 0.84647,-2.76737 0.25666,-1.18216 0.62826,-0.74809 0.83034,0.96953 0.0772,0.65645 0.21346,-0.21152 0.30739,-1.93844 0.0751,-1.38062 0.20243,-1.09808 0.2856,0.62938 0.0294,0.61132 0.27405,-0.27751 0.54729,-1.98526 0.006,-0.0379 0.18079,0.922 0.39027,2.14395 0.22245,-2.72506 0.29733,-1.6962 0.35221,0.0324 0.015,0.4709 0.16955,0.0333 0.34531,-0.9773 0.10354,-0.59535 0.27144,0.32155 0.37502,2.04791 0.001,0.0193 0.17191,-1.01231 0.38139,-2.30409 -0.0389,2.86885 -0.0389,2.86885 -0.0389,2.86885 0.54991,-2.95577 0.54991,-2.95577 0.54991,-2.95577 0.11225,3.50913 0.21308,2.41761 0.33145,0.69222 0.0539,-0.78521 0.10049,-0.0213 0.13322,1.70784 0.0201,1.06163 0.45117,0.58322 0.96379,-1.06854 0.11581,-0.37317 0.27127,0.72501 0.34721,2.45281 0.0637,1.44923 0.19612,1.22431 0.31201,-0.50127 0.0805,-1.19803 0.20276,-0.76478 0.27217,0.96325 0.0199,0.49585 0.26451,-0.48565 0.54533,-2.19217 0.17305,-1.05157 0.36909,-0.5031 0.44209,1.22483 0.0379,0.89792 0.74084,0.3877 1.45496,-1.18653 0.17036,-0.37554 0.3127,0.724 0.3127,2.45347 0,1.02862 0.2961,0.49145 0.58559,-1.21341 0.19773,-1.16452 0.32698,-0.70616 0.2821,1.02273 -0.0249,0.95938 0.10746,0.34346 0.30443,-1.37476 0.0511,-0.44594 -0.61445,2.88969 0.38059,1.82086 0.54324,-0.92649 0.54324,-0.92649 0.54324,-0.92649 0.0668,2.28744 0.0668,2.28744 0.0668,2.28744 0.21793,-4.12645 0.24955,-3.53468 0.35325,-1.80862 0.0807,1.34405 0.28759,1.03988 0.45697,-0.68123 0.1195,-1.2142 0.34659,-0.79602 0.43232,0.93119 0.0702,1.41429 0.30075,1.20657 0.83764,-0.43643 0.13526,-0.41394 0.63118,-1.31697 0.63051,-1.04596 0.34341,3.5948 0.62951,2.60383 0.9003,0.89571 0.19982,-1.26046 0.0775,-3.68153 -0.31076,-5.36391 -0.55273,-2.39519 0.90315,-2.16609 1.00071,0.71276 0.0375,1.10786 0.0351,2.23297 0.0569,3.35092 0.0337,1.72717 0.30783,1.72648 0.43963,0.002 0.004,-0.0471 0.007,-0.0943 0.0108,-0.14144 0.13122,-1.72444 0.63099,-1.7775 1.11899,-0.1183 0.0431,0.14646 0.0862,0.29293 0.12924,0.43939 0.488,1.6592 0.31757,4.05141 -0.38069,5.34317 1.57283,-4.21115 1.94527,-3.84486 1.92589,-2.1155 -0.0139,1.23823 0.14198,0.8494 0.45107,-0.8519 0.22241,-1.22417 0.52017,-0.81881 0.69749,0.90153 0.11801,1.14504 2.20591,1.91784 1.58234,2.30403 l -1.49606,1.4054 c 3.28346,0.24321 2.01174,0.23008 0.2825,0.20195 -0.50441,-0.008 -1.00882,-0.0164 -1.51323,-0.0246 -1.72924,-0.0281 -1.80416,0.4018 -0.16733,0.96025 1.33074,0.45402 1.01976,0.63677 -0.69454,0.40819 -0.7753,-0.10337 -1.55059,-0.20674 -2.32589,-0.31011 -1.7143,-0.22858 -2.46047,-1.65946 -1.66661,-3.19596 0.28843,-0.55826 -0.69333,-0.31218 -2.19281,0.54959 -0.0232,0.0133 -0.0464,0.0267 -0.0696,0.04 -1.49948,0.86177 -1.72367,0.56899 -0.50075,-0.65393 0.0688,-0.0688 -0.88147,0.85227 -2.15849,2.01855 -0.97767,0.89288 -0.86273,-0.30948 -2.02792,-1.57479 -0.006,-0.006 -0.53673,1.30342 -1.4692,2.75901 -0.28126,0.43904 -0.81507,-0.61955 -0.98963,-2.33881 -0.0591,-0.58172 -0.79971,-1.58953 -1.63761,-2.25287 -3.21124,2.60388 -3.78239,1.60329 -3.39118,-0.0767 0.0878,-0.37724 -0.0714,-0.016 -0.36416,0.80187 -1.47005,4.51566 -2.08896,4.28902 -2.01939,2.56202 0.0225,-0.55832 -0.89366,0.0539 -2.13403,1.25891 -0.73343,0.71249 -1.37037,-0.18724 -1.29824,-1.89297 0.0142,-0.33615 -1.24978,0.18962 -2.67713,1.16623 -0.48888,0.33449 -0.19183,-0.61295 0.66345,-2.11614 0.29684,-0.52173 0.45256,-1.9352 0.34783,-3.15715 -1.82508,2.73761 -1.75493,1.91068 -1.58036,0.75856 -2.63018,2.45865 -2.24943,1.48042 -1.43722,-0.0465 0.0606,-0.114 0.1098,-0.20639 0.10981,-0.20639 z"
       id="path32-8-6"
       transform="translate(109.53688,-438.41763)" /></g></svg>
