<?xml version="1.0" encoding="UTF-8" standalone="no"?>
<!-- Created with Inkscape (http://www.inkscape.org/) -->

<svg
   width="20.992437mm"
   height="20.66527mm"
   viewBox="0 0 20.992437 20.66527"
   version="1.1"
   id="svg1"
   xml:space="preserve"
   xmlns:xlink="http://www.w3.org/1999/xlink"
   xmlns="http://www.w3.org/2000/svg"
   xmlns:svg="http://www.w3.org/2000/svg"><defs
     id="defs1"><color-profile
       name="Adobe-RGB-1998"
       xlink:href="../../../../../../WINDOWS/system32/spool/drivers/color/AdobeRGB1998.icc"
       id="color-profile1" /></defs><g
     id="layer1"
     transform="translate(252.92352,-137.33519)"><path
       style="fill:#808080;fill-opacity:1;stroke:none;stroke-width:0.264583;stroke-dasharray:none;stroke-opacity:1"
       d="m -218.35344,509.03627 c -1.86251,1.2248 -3.72502,2.44961 -5.58753,3.67441 -0.6995,0.46 -0.65883,0.53079 0.0908,0.15812 1.64012,-0.81532 3.28024,-1.63065 4.92036,-2.44597 0.74968,-0.37267 0.78933,-0.30344 0.0886,0.15464 -2.55243,1.66847 -5.10485,3.33694 -7.65728,5.00541 -0.70076,0.45808 -0.64571,1.09835 0.12295,1.43009 1.8673,0.80588 3.73459,1.61176 5.60189,2.41764 0.76866,0.33174 0.71914,0.51038 -0.11061,0.39901 -1.19039,-0.15978 -2.38078,-0.31957 -3.57117,-0.47935 -0.82975,-0.11137 -0.82969,-0.0542 -0.72377,0.52398 -1.66036,0.54058 -0.58636,0.55459 -0.93395,0.96662 -1.99992,1.06661 -1.859,1.31932 -1.02322,1.27071 0.19048,-0.0111 0.38091,-0.0223 0.57113,-0.0336 0.83571,-0.0497 1.36812,0.5699 1.1145,1.36077 -0.0848,0.26444 0.66502,0.27816 1.45527,0.002 1.97301,-0.69007 3.94603,-1.38014 5.91904,-2.07021 0.79025,-0.27639 0.92537,-0.9533 0.3018,-1.51192 -0.65957,-0.59086 -1.31914,-1.18173 -1.97871,-1.77259 -0.62357,-0.55862 -0.60519,-1.44291 0.0411,-1.97512 l 1.41109,-1.16208 a 0.85212805,0.85212805 21.185654 0 1 1.38521,0.53689 l 1.51178,10.54808 a 0.88592017,0.88592017 22.146963 0 0 1.41688,0.57669 l 4.08406,-3.13946 a 0.69750766,0.69750766 77.158965 0 0 -0.28165,-1.2356 l -3.12355,-0.65639 a 2.2239452,2.2239452 46.146739 0 1 -1.7356,-1.80651 l -0.7315,-4.33672 c -0.13925,-0.82553 0.34861,-1.81053 1.08967,-2.20006 0.25295,-0.13296 0.5059,-0.26593 0.75885,-0.39889 0.74106,-0.38953 1.14421,-0.0928 0.90047,0.66286 1.63064,-1.59596 2.32304,-1.39872 2.6299,-0.61979 0.01,0.0254 0.34209,-0.55034 0.74171,-1.286 0.16492,-0.3036 0.32983,-0.60719 0.49475,-0.91079 0.39962,-0.73566 0.73742,-0.65349 0.75449,0.18353 0.007,0.35734 0.32415,0.0438 0.70773,-0.70039 0.27254,-0.52874 0.54508,-1.05747 0.81762,-1.58621 0.38358,-0.74415 0.0455,-1.54572 -0.75517,-1.79037 -0.62235,-0.19016 -1.2447,-0.38032 -1.86705,-0.57048 -0.80065,-0.24465 -0.95724,0.024 -0.34976,0.60009 l 0.35987,0.34126 a 0.45581356,0.45581356 116.7437 0 1 -0.39286,0.77962 l -2.26633,-0.39994 c -0.82446,-0.14549 -1.00135,0.20462 -0.39511,0.782 0.19501,0.18573 0.39003,0.37145 0.58504,0.55718 0.60624,0.57738 0.42011,1.00692 -0.41573,0.95943 -0.28564,-0.0162 -0.57128,-0.0325 -0.85692,-0.0487 -0.83585,-0.0475 -0.91286,0.23011 -0.17201,0.62003 0.64851,0.34132 0.49567,0.6317 -0.34136,0.64862 -0.44604,0.009 -0.89209,0.018 -1.33813,0.0271 -0.83703,0.0169 -1.62714,-0.63883 -1.76476,-1.46463 -0.13049,-0.78294 -0.80332,-1.04472 -1.50282,-0.58472 z"
       id="path57-4-8-9"
       transform="translate(-25.208916,-368.79357)" /></g></svg>
