<?xml version="1.0" encoding="UTF-8" standalone="no"?>
<!-- Created with Inkscape (http://www.inkscape.org/) -->

<svg
   width="15.653771mm"
   height="16.530891mm"
   viewBox="0 0 15.653771 16.530891"
   version="1.1"
   id="svg1"
   xml:space="preserve"
   xmlns:xlink="http://www.w3.org/1999/xlink"
   xmlns="http://www.w3.org/2000/svg"
   xmlns:svg="http://www.w3.org/2000/svg"><defs
     id="defs1"><color-profile
       name="Adobe-RGB-1998"
       xlink:href="../../../../../../WINDOWS/system32/spool/drivers/color/AdobeRGB1998.icc"
       id="color-profile1" /></defs><g
     id="layer1"
     transform="translate(250.66354,124.5048)"><path
       fill="#ff0066"
       d="m -237.47815,-123.13967 c 1.01961,1.20801 1.01961,3.29155 1.47399,5.35292 0.45439,2.07245 1.35209,4.13382 0.84229,5.75188 -0.49873,1.61807 -2.40493,2.78175 -4.43306,3.44671 -2.01704,0.67603 -4.16707,0.84228 -6.16194,0.2549 -1.9838,-0.58738 -3.81243,-1.93947 -4.52172,-3.67944 -0.72037,-1.73998 -0.33248,-3.87892 0.36573,-5.65215 0.68712,-1.76213 1.68456,-3.15854 2.95906,-4.32222 1.26342,-1.17475 2.81499,-2.11678 4.61038,-2.41602 1.79539,-0.29922 3.83459,0.0443 4.86527,1.26342 z"
       id="path1-77-8-5"
       style="fill:#808080;fill-opacity:1;stroke:none;stroke-width:0.264583;stroke-dasharray:none;stroke-opacity:1" /></g></svg>
