<?xml version="1.0" encoding="UTF-8" standalone="no"?>
<!-- Created with Inkscape (http://www.inkscape.org/) -->

<svg
   width="13.532735mm"
   height="20.339275mm"
   viewBox="0 0 13.532735 20.339275"
   version="1.1"
   id="svg1"
   xml:space="preserve"
   xmlns:xlink="http://www.w3.org/1999/xlink"
   xmlns="http://www.w3.org/2000/svg"
   xmlns:svg="http://www.w3.org/2000/svg"><defs
     id="defs1"><color-profile
       name="Adobe-RGB-1998"
       xlink:href="../../../../../../WINDOWS/system32/spool/drivers/color/AdobeRGB1998.icc"
       id="color-profile1" /></defs><g
     id="layer1"
     transform="translate(244.21433,-66.622042)"><path
       d="m 190.55839,60.381607 -8.78918,17.395117 a 3.2539161,3.2539161 66.153764 0 0 2.03459,4.602969 l 0.95175,0.263972 a 8.7498571,8.7498571 39.899594 0 1 5.54561,4.636784 l 5.93991,12.340921 a 0.85049807,0.85049807 163.44309 0 0 1.60975,-0.478567 l -1.22453,-9.413561 a 2.631295,2.631295 139.04403 0 1 3.31248,-2.875023 l 6.88051,1.908072 a 1.1640856,1.1640856 121.84661 0 0 1.17879,-1.897747 l -4.13969,-4.628976 a 5.6403137,5.6403137 83.32545 0 1 -0.75451,-6.447536 l 3.07161,-5.667302 a 1.3468393,1.3468393 47.202412 0 0 -1.73304,-1.871669 l -6.40356,2.858068 a 2.9560426,2.9560426 29.267791 0 1 -4.13614,-2.318037 l -1.04258,-8.014161 a 1.2216299,1.2216299 9.6969645 0 0 -2.30177,-0.393324 z"
       style="fill:#808080;fill-opacity:1;stroke:none;stroke-width:0.525441;stroke-dasharray:none;stroke-opacity:1"
       id="path20-6-5-1"
       transform="matrix(0.50354548,0,0,0.50354548,-335.56732,36.554887)" /></g></svg>
