<?xml version="1.0" encoding="UTF-8" standalone="no"?>
<!-- Created with Inkscape (http://www.inkscape.org/) -->

<svg
   width="17.031145mm"
   height="18.73975mm"
   viewBox="0 0 17.031145 18.73975"
   version="1.1"
   id="svg1"
   xml:space="preserve"
   xmlns:xlink="http://www.w3.org/1999/xlink"
   xmlns="http://www.w3.org/2000/svg"
   xmlns:svg="http://www.w3.org/2000/svg"><defs
     id="defs1"><color-profile
       name="Adobe-RGB-1998"
       xlink:href="../../../../../../WINDOWS/system32/spool/drivers/color/AdobeRGB1998.icc"
       id="color-profile1" /></defs><g
     id="layer1"
     transform="translate(250.0057,36.549004)"><path
       fill="#ff0066"
       d="m -237.18317,-32.750007 c 0.65368,-0.31958 1.01684,0.56652 2.03367,1.3945 1.0023,0.81346 2.64376,1.56882 2.04818,1.97555 -0.58104,0.42126 -3.42817,0.49389 -3.92206,2.17893 -0.50841,1.69956 1.3364,5.01152 1.27831,7.08876 -0.0726,2.07723 -2.01914,2.91975 -3.34102,1.81576 -1.32187,-1.10398 -2.0046,-4.15447 -3.74775,-5.25846 -1.74312,-1.10398 -4.5612,-0.26147 -5.7814,-0.85705 -1.22019,-0.58103 -0.85703,-2.60017 -0.98777,-4.69193 -0.14527,-2.10629 -0.78441,-4.28521 -0.0726,-5.75235 0.71179,-1.48167 2.7745,-2.25155 4.66289,-1.2202 1.87387,1.01682 3.58797,3.84943 4.90985,4.5031 1.32186,0.65368 2.26607,-0.85705 2.91974,-1.17661 z"
       id="path1-61-8-0"
       style="fill:#808080;fill-opacity:1;stroke:none;stroke-width:0.264583;stroke-dasharray:none;stroke-opacity:1" /></g></svg>
