<?xml version="1.0" encoding="UTF-8" standalone="no"?>
<!-- Created with Inkscape (http://www.inkscape.org/) -->

<svg
   width="19.250229mm"
   height="16.517925mm"
   viewBox="0 0 19.250229 16.517925"
   version="1.1"
   id="svg1"
   xml:space="preserve"
   xmlns:xlink="http://www.w3.org/1999/xlink"
   xmlns="http://www.w3.org/2000/svg"
   xmlns:svg="http://www.w3.org/2000/svg"><defs
     id="defs1"><color-profile
       name="Adobe-RGB-1998"
       xlink:href="../../../../../../WINDOWS/system32/spool/drivers/color/AdobeRGB1998.icc"
       id="color-profile1" /></defs><g
     id="layer1"
     transform="translate(251.77638,-11.664007)"><path
       fill="#ff0066"
       d="m -240.90101,18.231854 c 0.19468,1.33683 0.29851,1.55747 1.19406,1.77811 0.89555,0.22064 2.55686,0.42831 4.16625,1.57046 1.62237,1.14215 3.19283,3.21879 2.99815,4.64647 -0.19469,1.42769 -2.14153,2.20642 -3.93263,1.88195 -1.80408,-0.33746 -3.45241,-1.76514 -4.34796,-3.07601 -0.88257,-1.32386 -1.02534,-2.50495 -1.0513,-3.19283 -0.026,-0.70086 0.0519,-0.89555 -1.98578,-1.01236 -2.05067,-0.11682 -6.21692,-0.15575 -7.47588,-0.90853 -1.24599,-0.75278 0.4283,-2.2194 1.60939,-3.8288 1.18108,-1.62237 1.86897,-3.37453 3.14091,-4.07539 1.28492,-0.70087 3.14091,-0.35043 4.20518,1.03831 1.0513,1.40173 1.2979,3.85476 1.47961,5.17862 z"
       id="path1-4-6-8"
       style="fill:#808080;fill-opacity:1;stroke:none;stroke-width:0.264583;stroke-dasharray:none;stroke-opacity:1" /></g></svg>
