<?xml version="1.0" encoding="UTF-8" standalone="no"?>
<!-- Created with Inkscape (http://www.inkscape.org/) -->

<svg
   width="24.204714mm"
   height="19.264439mm"
   viewBox="0 0 24.204714 19.264439"
   version="1.1"
   id="svg1"
   xml:space="preserve"
   xmlns:xlink="http://www.w3.org/1999/xlink"
   xmlns="http://www.w3.org/2000/svg"
   xmlns:svg="http://www.w3.org/2000/svg"><defs
     id="defs1"><color-profile
       name="Adobe-RGB-1998"
       xlink:href="../../../../../../WINDOWS/system32/spool/drivers/color/AdobeRGB1998.icc"
       id="color-profile1" /></defs><g
     id="layer1"
     transform="translate(254.6377,-114.60906)"><path
       style="fill:#808080;fill-opacity:1;stroke:none;stroke-width:0.264583;stroke-dasharray:none;stroke-opacity:1"
       d="m -234.97656,122.34972 c 0,0 -7.60721,-8.9283 -8.01718,-7.6073 -0.40997,1.3211 7.56166,6.1496 4.82853,6.104 -2.73313,-0.045 -13.02791,2.7332 -10.15813,2.7787 2.86979,0.046 10.477,-2.6875 8.24494,-1.321 -2.23206,1.3666 -12.43574,2.3687 -12.02577,3.462 0.40997,1.0932 10.79586,-2.8698 9.97592,-1.8221 -0.81994,1.0477 -7.97162,3.8264 -5.78512,3.6897 2.1865,-0.1367 10.84141,-5.9218 10.34034,-4.9196 -0.50108,1.0021 -17.85644,10.3403 -17.03651,11.1147 0.81994,0.7744 12.89126,-8.7915 13.75675,-7.4705 0.86549,1.321 1.50322,3.8719 2.18651,3.6441 0.68328,-0.2277 -1.50323,-3.7808 -0.81994,-4.0997 0.68328,-0.3188 5.28405,0.046 5.37515,-0.6833 0.0911,-0.7288 -4.82853,-0.046 -4.55521,-0.8199 0.27331,-0.7744 8.83711,-0.5011 8.19938,-1.6854 -0.63773,-1.1844 -4.50966,-0.3644 -4.50966,-0.3644 z"
       id="path55-5-0" /></g></svg>
