<?xml version="1.0" encoding="UTF-8" standalone="no"?>
<!-- Created with Inkscape (http://www.inkscape.org/) -->

<svg
   width="20.681511mm"
   height="24.021526mm"
   viewBox="0 0 20.681511 24.021526"
   version="1.1"
   id="svg1"
   xml:space="preserve"
   xmlns:xlink="http://www.w3.org/1999/xlink"
   xmlns="http://www.w3.org/2000/svg"
   xmlns:svg="http://www.w3.org/2000/svg"><defs
     id="defs1"><color-profile
       name="Adobe-RGB-1998"
       xlink:href="../../../../../../WINDOWS/system32/spool/drivers/color/AdobeRGB1998.icc"
       id="color-profile1" /></defs><g
     id="layer1"
     transform="translate(240.36158,-287.60653)"><path
       style="fill:#808080;stroke-width:0.264583"
       d="m -330.92921,722.39362 -11.00816,7.52513 a 12.568608,12.568608 112.3663 0 0 -5.24846,12.75499 l 1.74236,9.03852 a 7.2201913,7.2201913 41.050837 0 0 6.71018,5.84353 l 11.18068,0.58845 a 9.8393638,9.8393638 145.98348 0 0 9.823,-6.62982 l 2.09642,-6.1043 c 0.93214,-2.71416 -0.47978,-5.914 -3.3234,-6.22178 -2.10945,-0.22832 -4.51431,-0.0412 -6.43255,1.33062 -2.75068,1.96706 -5.56058,7.3901 -6.13791,5.80537 -0.67012,-1.83943 -1.29201,-4.49216 -1.78079,-6.90233 -0.65233,-3.21664 1.60224,-5.48438 4.88283,-5.46727 4.15038,0.0217 9.44439,-0.49673 12.29309,-2.93386 1.94216,-1.66157 -1.06592,-5.24553 -4.16492,-8.13349 -2.69264,-2.50927 -7.59222,-2.57198 -10.63237,-0.49376 z"
       id="path5-4"
       transform="matrix(0.64497736,0,0,0.64497736,-16.288028,-177.36658)" /></g></svg>
