<?xml version="1.0" encoding="UTF-8" standalone="no"?>
<!-- Created with Inkscape (http://www.inkscape.org/) -->

<svg
   width="16.661726mm"
   height="17.834337mm"
   viewBox="0 0 16.661726 17.834337"
   version="1.1"
   id="svg1"
   xml:space="preserve"
   xmlns:xlink="http://www.w3.org/1999/xlink"
   xmlns="http://www.w3.org/2000/svg"
   xmlns:svg="http://www.w3.org/2000/svg"><defs
     id="defs1"><color-profile
       name="Adobe-RGB-1998"
       xlink:href="../../../../../../WINDOWS/system32/spool/drivers/color/AdobeRGB1998.icc"
       id="color-profile1" /></defs><g
     id="layer1"
     transform="translate(250.77431,103.25934)"><path
       fill="#ff0066"
       d="m -239.91833,-99.779229 c 1.86096,1.0531 4.71729,0.3895 5.53957,1.13965 0.82228,0.73572 -0.3895,2.8852 -1.87538,4.15467 -1.5003,1.28391 -3.28911,1.70227 -3.46222,3.548793 -0.18754,1.84652 1.2262,5.13564 0.86556,5.10679 -0.36065,-0.0288 -2.4957,-3.36125 -4.68844,-3.26027 -2.19274,0.0866 -4.42877,3.62092 -4.83269,3.66419 -0.3895,0.0433 1.08194,-3.40452 1.5003,-5.3376 0.43277,-1.947513 -0.17311,-2.409133 -1.35605,-3.534363 -1.18292,-1.13965 -2.94289,-2.95732 -2.46683,-3.34682 0.47605,-0.3895 3.15928,0.64917 4.74614,-0.56261 1.57242,-1.21178 2.01963,-4.674011 2.6688,-5.020231 0.64917,-0.36065 1.51472,2.3947 3.36124,3.447801 z"
       id="path1-9-3-5"
       style="fill:#808080;fill-opacity:1;stroke:none;stroke-width:0.264583;stroke-dasharray:none;stroke-opacity:1" /></g></svg>
