<?xml version="1.0" encoding="UTF-8" standalone="no"?>
<!-- Created with Inkscape (http://www.inkscape.org/) -->

<svg
   width="18.320629mm"
   height="19.587461mm"
   viewBox="0 0 18.320629 19.587461"
   version="1.1"
   id="svg1"
   xml:space="preserve"
   xmlns:xlink="http://www.w3.org/1999/xlink"
   xmlns="http://www.w3.org/2000/svg"
   xmlns:svg="http://www.w3.org/2000/svg"><defs
     id="defs1"><color-profile
       name="Adobe-RGB-1998"
       xlink:href="../../../../../../WINDOWS/system32/spool/drivers/color/AdobeRGB1998.icc"
       id="color-profile1" /></defs><g
     id="layer1"
     transform="translate(249.93638,148.85881)"><path
       style="fill:#808080;fill-opacity:1;stroke:none;stroke-width:0.264583;stroke-dasharray:none;stroke-opacity:1"
       d="m -238.09616,-142.32289 c -0.72883,-2.36871 1.63988,-4.373 -0.36442,-5.83067 -2.00429,-1.45767 -6.74171,-0.54663 -7.37944,1.73098 -0.63774,2.27761 2.36871,4.46411 0.81993,5.83068 -1.54877,1.36656 -4.00859,-0.91105 -4.73742,2.82423 -0.72883,3.73527 0.91104,5.46626 2.36871,5.83067 1.45767,0.36442 1.82209,-1.09325 3.09755,-0.1822 1.27546,0.91104 -0.63773,1.82208 0.72883,2.55091 1.36657,0.72884 4.46411,0.0911 4.1908,-1.63987 -0.27331,-1.73098 -1.45767,-4.64632 -0.27331,-5.55736 1.18435,-0.91105 7.19724,1.36656 7.47055,-0.72884 0.27331,-2.0954 1.36656,-4.373 -0.54663,-4.91963 -1.91319,-0.54663 -4.81652,1.66656 -5.37515,0.0911 z"
       id="path66-6-6" /></g></svg>
