<?xml version="1.0" encoding="UTF-8" standalone="no"?>
<!-- Created with Inkscape (http://www.inkscape.org/) -->

<svg
   width="19.459141mm"
   height="12.9779mm"
   viewBox="0 0 19.459141 12.9779"
   version="1.1"
   id="svg1"
   xml:space="preserve"
   xmlns:xlink="http://www.w3.org/1999/xlink"
   xmlns="http://www.w3.org/2000/svg"
   xmlns:svg="http://www.w3.org/2000/svg"><defs
     id="defs1"><color-profile
       name="Adobe-RGB-1998"
       xlink:href="../../../../../../WINDOWS/system32/spool/drivers/color/AdobeRGB1998.icc"
       id="color-profile1" /></defs><g
     id="layer1"
     transform="translate(241.35578,-366.95975)"><path
       d="m -233.78721,366.96045 c -1.87838,3e-4 -3.40092,1.5232 -3.40084,3.4015 0.007,0.3979 0.084,0.7914 0.22701,1.1628 -0.32212,-0.098 -0.65707,-0.1485 -0.99392,-0.1485 -1.87809,3e-4 -3.40052,1.5227 -3.40082,3.4008 -8e-5,1.8784 1.52244,3.4013 3.40082,3.4016 0.24971,-5e-4 0.49861,-0.029 0.74217,-0.084 0.29413,1.0873 1.28051,1.8426 2.40693,1.843 1.25445,-0.011 2.30563,-0.9517 2.45494,-2.1973 0.84778,0.6489 1.88434,1.003 2.9519,1.0084 1.25068,-0.01 2.45156,-0.4907 3.35647,-1.354 0.45302,0.4099 1.04074,0.6393 1.65166,0.6446 1.37752,-1e-4 2.49417,-1.1167 2.49425,-2.4942 3.3e-4,-1.3778 -1.11646,-2.4949 -2.49425,-2.495 -0.0588,0.01 -0.11714,0.014 -0.17535,0.023 -0.38129,-2.3736 -2.42877,-4.1196 -4.83278,-4.1212 -0.41215,0.01 -0.82188,0.064 -1.21945,0.1732 -0.5093,-1.3057 -1.76726,-2.1653 -3.16874,-2.1654 z"
       style="fill:#808080;stroke-width:0.372534"
       id="path83-1" /></g></svg>
