<?xml version="1.0" encoding="UTF-8" standalone="no"?>
<!-- Created with Inkscape (http://www.inkscape.org/) -->

<svg
   width="15.555895mm"
   height="18.097097mm"
   viewBox="0 0 15.555895 18.097097"
   version="1.1"
   id="svg1"
   xml:space="preserve"
   xmlns:xlink="http://www.w3.org/1999/xlink"
   xmlns="http://www.w3.org/2000/svg"
   xmlns:svg="http://www.w3.org/2000/svg"><defs
     id="defs1"><color-profile
       name="Adobe-RGB-1998"
       xlink:href="../../../../../../WINDOWS/system32/spool/drivers/color/AdobeRGB1998.icc"
       id="color-profile1" /></defs><g
     id="layer1"
     transform="translate(250.22006,13.164573)"><path
       fill="#ff0066"
       d="m -238.69065,-6.3192661 c 1.23382,-0.30845 2.58332,0.44341 3.33518,1.63867 0.75186,1.21454 0.90608,2.8725 0.38557,4.26055004 -0.52052,1.40733 -1.71579,2.52546996 -3.02672,3.45083996 -1.31094,0.94465 -2.75683,1.65795 -4.33766,1.85073 -1.58084,0.19279 -3.3159,-0.15423 -4.37622,-1.1567 -1.06031,-1.00248 -1.46516,-2.67971 -1.1567,-4.04847996 0.30845,-1.36877004 1.34949,-2.40981004 0.55907,-5.30158004 -0.79042,-2.89177 -3.39301,-7.6342799 -2.83393,-7.5378899 0.53979,0.0964 4.24126,5.0124099 6.65107,6.7860199 2.42909,1.75435 3.54724,0.3663 4.80034,0.0579 z"
       id="path1-8-1-6"
       style="fill:#808080;fill-opacity:1;stroke:none;stroke-width:0.264583;stroke-dasharray:none;stroke-opacity:1" /></g></svg>
