<?xml version="1.0" encoding="UTF-8" standalone="no"?>
<!-- Created with Inkscape (http://www.inkscape.org/) -->

<svg
   width="17.1555mm"
   height="15.252222mm"
   viewBox="0 0 17.1555 15.252222"
   version="1.1"
   id="svg1"
   xml:space="preserve"
   xmlns:xlink="http://www.w3.org/1999/xlink"
   xmlns="http://www.w3.org/2000/svg"
   xmlns:svg="http://www.w3.org/2000/svg"><defs
     id="defs1"><color-profile
       name="Adobe-RGB-1998"
       xlink:href="../../../../../../WINDOWS/system32/spool/drivers/color/AdobeRGB1998.icc"
       id="color-profile1" /></defs><g
     id="layer1"
     transform="translate(252.76959,79.135735)"><path
       fill="#ff0066"
       d="m -239.76752,-79.135507 c 1.30686,0.0104 2.22997,1.43133 2.87303,2.89378 0.64306,1.46245 1.00609,2.97675 1.18241,4.58441 0.18669,1.60766 0.17632,3.3294 -0.66381,4.44957 -0.8505,1.1098 -2.53076,1.62841 -4.01395,2.24035 -1.49356,0.60157 -2.77969,1.30687 -3.89987,1.01645 -1.12016,-0.29041 -2.06401,-1.58691 -3.10121,-2.45816 -1.0372,-0.87124 -2.147,-1.31724 -3.28792,-2.14699 -1.13054,-0.81939 -2.28183,-2.01217 -2.06402,-3.08048 0.21781,-1.06831 1.79435,-2.01216 3.0701,-2.58262 1.28613,-0.57045 2.2611,-0.76753 3.08048,-1.05794 0.81939,-0.30079 1.48319,-0.69492 2.65522,-1.58691 1.17204,-0.89199 2.86267,-2.29221 4.16954,-2.27146 z"
       id="path1-1-7-4"
       style="fill:#808080;fill-opacity:1;stroke:none;stroke-width:0.264583;stroke-dasharray:none;stroke-opacity:1" /></g></svg>
