<?xml version="1.0" encoding="UTF-8" standalone="no"?>
<!-- Created with Inkscape (http://www.inkscape.org/) -->

<svg
   width="24.709225mm"
   height="28.150337mm"
   viewBox="0 0 24.709225 28.150337"
   version="1.1"
   id="svg1"
   xml:space="preserve"
   xmlns:xlink="http://www.w3.org/1999/xlink"
   xmlns="http://www.w3.org/2000/svg"
   xmlns:svg="http://www.w3.org/2000/svg"><defs
     id="defs1"><color-profile
       name="Adobe-RGB-1998"
       xlink:href="../../../../../../WINDOWS/system32/spool/drivers/color/AdobeRGB1998.icc"
       id="color-profile1" /></defs><g
     id="layer1"
     transform="translate(239.84568,-228.87069)"><path
       style="fill:#808080;fill-opacity:1;stroke:none;stroke-width:0.264583;stroke-dasharray:none;stroke-opacity:1"
       d="m -213.74811,662.54266 -0.15634,-0.0993 a 1.0536869,1.0536869 109.21917 0 1 0.67535,-1.93724 l 1.63474,0.17198 a 0.54681294,0.54681294 121.06962 0 0 0.51126,-0.84853 l -4.62362,-6.88934 a 0.84273916,0.84273916 135.49782 0 1 1.18148,-1.16111 l 4.10224,2.85774 a 1.8332868,1.8332868 147.08285 0 0 2.84935,-1.84453 l -2.16342,-11.45341 a 0.75758033,0.75758033 163.50317 0 1 1.44535,-0.42805 l 2.12951,5.19301 a 1.3221165,1.3221165 169.58115 0 0 2.54494,-0.46795 l 0.17292,-6.78667 a 0.3873281,0.3873281 178.36302 0 1 0.77321,-0.0221 l 0.56185,6.78551 a 1.5699417,1.5699417 9.1990018 0 0 3.00832,0.48719 l 0.8805,-2.06117 a 0.41021657,0.41021657 19.12773 0 1 0.77324,0.26818 l -1.16518,4.31116 a 2.6836862,2.6836862 46.003777 0 0 3.19975,3.31387 l 3.00001,-0.69903 a 1.0368956,1.0368956 67.170882 0 1 0.79306,1.88394 l -4.63824,2.95965 a 1.5779636,1.5779636 76.830865 0 0 0.67829,2.89894 l 2.9305,0.31854 a 0.58679272,0.58679272 88.754027 0 1 0.0253,1.1634 l -4.5013,0.68843 a 1.5990817,1.5990817 119.4309 0 0 -1.23622,2.19117 2.4154511,2.4154511 130.30764 0 1 -2.74408,3.23483 l -4.4408,-0.81358 a 23.032855,23.032855 21.407183 0 1 -8.20197,-3.21551 z"
       id="path75-5-3-9"
       transform="translate(-23.995978,-409.6011)" /></g></svg>
