<?xml version="1.0" encoding="UTF-8" standalone="no"?>
<!-- Created with Inkscape (http://www.inkscape.org/) -->

<svg
   width="12.39059mm"
   height="11.223692mm"
   viewBox="0 0 12.39059 11.223692"
   version="1.1"
   id="svg1"
   xml:space="preserve"
   xmlns:xlink="http://www.w3.org/1999/xlink"
   xmlns="http://www.w3.org/2000/svg"
   xmlns:svg="http://www.w3.org/2000/svg"><defs
     id="defs1"><color-profile
       name="Adobe-RGB-1998"
       xlink:href="../../../../../../WINDOWS/system32/spool/drivers/color/AdobeRGB1998.icc"
       id="color-profile1" /></defs><g
     id="layer1"
     transform="translate(237.34853,-387.5816)"><path
       d="m -230.67877,387.5816 c -0.94065,0 -1.6253,0.2124 -1.74822,0.5958 -0.1357,0.4347 0.49033,0.9967 1.60368,1.4392 -0.4721,0.098 -0.76726,0.2772 -0.84294,0.5123 -0.13418,0.4191 0.44288,0.9591 1.49199,1.3965 -0.18888,0.012 -0.36128,0.034 -0.51641,0.065 -0.52443,-0.3845 -1.39231,-0.7493 -2.42166,-0.9798 -0.68261,-0.1528 -1.33905,-0.2249 -1.90353,-0.2229 -0.94081,0 -1.62589,0.2123 -1.74879,0.5958 -0.11475,0.3636 0.30547,0.8223 1.1241,1.2277 -0.94265,0.012 -1.57265,0.2335 -1.6887,0.5946 -0.13404,0.4177 0.43855,0.9558 1.4818,1.3927 -0.77779,0.052 -1.28203,0.2644 -1.3843,0.5835 -0.1357,0.4347 0.49068,0.9967 1.60423,1.4391 -0.47222,0.098 -0.76764,0.2773 -0.84349,0.5124 -0.19682,0.6135 1.11942,1.4413 2.93978,1.8489 1.82017,0.4075 3.45509,0.2406 3.65175,-0.3729 0.1357,-0.4347 -0.49032,-0.9967 -1.60366,-1.4391 0.47209,-0.098 0.76724,-0.2773 0.84292,-0.5124 0.13418,-0.4191 -0.44287,-0.9591 -1.49199,-1.3965 0.18915,-0.012 0.3617,-0.035 0.51698,-0.065 0.52447,0.3845 1.39192,0.7497 2.42109,0.9802 1.82032,0.4076 3.45512,0.2403 3.65176,-0.3732 0.11476,-0.3636 -0.30489,-0.822 -1.12353,-1.2274 0.94266,-0.012 1.57264,-0.2335 1.6887,-0.5946 0.13403,-0.4177 -0.43854,-0.9561 -1.48179,-1.393 0.77778,-0.052 1.28201,-0.2641 1.38429,-0.5831 0.13569,-0.4347 -0.49069,-0.9972 -1.60424,-1.4395 0.47223,-0.098 0.76766,-0.2774 0.8435,-0.5124 0.19683,-0.6136 -1.11942,-1.441 -2.93977,-1.8485 -0.68257,-0.1529 -1.33915,-0.225 -1.90355,-0.223 z m -0.36562,5.3918 c 0.16675,0.1222 0.36565,0.2436 0.602,0.3605 -0.31098,0 -0.58382,0.032 -0.81968,0.079 -0.16677,-0.1222 -0.36561,-0.2436 -0.60201,-0.3605 0.31098,0 0.58382,-0.032 0.81969,-0.079 z"
       style="fill:#808080;stroke-width:0.215293"
       id="path89-4" /></g></svg>
