<?xml version="1.0" encoding="UTF-8" standalone="no"?>
<!-- Created with Inkscape (http://www.inkscape.org/) -->

<svg
   width="21.530567mm"
   height="23.961626mm"
   viewBox="0 0 21.530567 23.961626"
   version="1.1"
   id="svg1"
   xml:space="preserve"
   xmlns:xlink="http://www.w3.org/1999/xlink"
   xmlns="http://www.w3.org/2000/svg"
   xmlns:svg="http://www.w3.org/2000/svg"><defs
     id="defs1"><color-profile
       name="Adobe-RGB-1998"
       xlink:href="../../../../../../WINDOWS/system32/spool/drivers/color/AdobeRGB1998.icc"
       id="color-profile1" /></defs><g
     id="layer1"
     transform="translate(249.65486,-34.96021)"><path
       d="m -25.794757,272.1142 -0.419701,0.17981 -2.590708,2.33159 a 3.0955585,3.0955585 90 0 0 0,4.60186 l 0.03406,0.0307 a 2.5490479,2.5490479 95.44475 0 1 -0.388645,4.07744 l -4.918715,2.96682 a 4.3271025,4.3271025 110.42196 0 0 -1.879035,5.04665 l 0.44092,1.35228 a 4.6482241,4.6482241 35.440392 0 0 4.505251,3.2065 l 2.166865,-0.0401 a 185.85654,185.85654 180 0 1 6.877988,0 l 2.166866,0.0401 a 4.6483594,4.6483594 144.56041 0 0 4.505342,-3.20647 l 0.440981,-1.35234 a 4.3269789,4.3269789 69.578839 0 0 -1.878944,-5.04662 l -4.918715,-2.96682 a 2.5490479,2.5490479 84.55525 0 1 -0.388645,-4.07744 l 0.03406,-0.0307 a 3.0955585,3.0955585 90 0 0 0,-4.60186 l -0.03406,-0.0307 a 11.864673,11.864673 39.810716 0 0 -2.976348,-2.48074 l -0.389287,-0.16714 z"
       style="fill:#808080;fill-opacity:1;stroke:none;stroke-width:0.264583;stroke-dasharray:none;stroke-opacity:1"
       id="path24-3-2-6"
       transform="translate(-213.4842,-236.98681)" /></g></svg>
